M48
; DRILL file {KiCad (5.99.0-6900-ga9be08e1ce)} date 11/13/20 16:54:09
; FORMAT={-:-/ absolute / inch / decimal}
; #@! TF.CreationDate,2020-11-13T16:54:09-06:00
; #@! TF.GenerationSoftware,Kicad,Pcbnew,(5.99.0-6900-ga9be08e1ce)
; #@! TF.FileFunction,Plated,1,2,PTH
FMAT,2
INCH
T1C0.0100
T2C0.0236
T3C0.0256
T4C0.0276
T5C0.0394
%
G90
G05
T1
X4.7244Y-3.1693
X4.7244Y-5.0984
X4.7638Y-3.9567
X4.8031Y-5.1772
X4.8425Y-4.7126
X4.8661Y-3.7362
X4.9055Y-3.4213
X5.0Y-3.622
X5.0787Y-4.5669
X5.2559Y-3.6417
X5.2559Y-3.8386
X5.315Y-3.1496
X5.4331Y-5.1181
X5.6693Y-3.1496
X5.6693Y-3.2283
X5.6693Y-3.3071
X5.7283Y-3.3858
X5.7874Y-5.1181
X5.8071Y-3.3858
X5.8858Y-3.3858
X5.9646Y-3.3858
X6.0433Y-3.3858
X6.1024Y-5.1181
X6.122Y-3.3858
X6.1811Y-3.1496
X6.1811Y-3.2283
X6.1811Y-3.3071
X6.252Y-3.5906
X6.3268Y-4.0039
X6.3268Y-4.0512
X6.3268Y-4.3307
X6.4152Y-4.189
X6.4173Y-4.7638
X6.4213Y-4.1142
X6.4213Y-4.1496
X6.4252Y-4.2244
X6.4252Y-4.2677
X6.4291Y-4.3386
X6.4528Y-3.6732
X6.4528Y-3.7362
X6.4528Y-4.0157
X6.4528Y-4.0512
X6.5748Y-3.622
X6.6535Y-4.3307
X6.7323Y-3.1693
X6.7323Y-3.4803
X6.7323Y-3.8976
X6.7323Y-3.9961
X6.7323Y-4.0748
X6.748Y-3.5433
X6.7598Y-3.7008
X6.9094Y-3.5433
T5
X6.8701Y-3.6417
X6.8701Y-3.7417
X6.8701Y-3.8417
X6.8701Y-3.9417
X6.8701Y-4.0417
X6.8701Y-4.1417
X6.8701Y-4.2417
X6.8701Y-4.3417
X6.8701Y-4.4417
X6.8701Y-4.5417
T2
G00X6.6602Y-4.7512
M15
G01X6.7035Y-4.7512
M16
G05
G00X6.6602Y-5.0913
M15
G01X6.7035Y-5.0913
M16
G05
G00X6.8307Y-4.7512
M15
G01X6.8622Y-4.7512
M16
G05
G00X6.8307Y-5.0913
M15
G01X6.8622Y-5.0913
M16
G05
T3
G00X4.761Y-4.6289
M15
G01X4.7768Y-4.6289
M16
G05
G00X4.761Y-4.8199
M15
G01X4.7768Y-4.8199
M16
G05
T4
G00X4.6398Y-4.6171
M15
G01X4.6594Y-4.6171
M16
G05
G00X4.6398Y-4.8317
M15
G01X4.6594Y-4.8317
M16
G05
T0
M30
