%TF.GenerationSoftware,KiCad,Pcbnew,(5.99.0-6900-ga9be08e1ce)*%
%TF.CreationDate,2020-11-13T16:54:07-06:00*%
%TF.ProjectId,rpi-cm4-base-carrier,7270692d-636d-4342-9d62-6173652d6361,v01*%
%TF.SameCoordinates,Original*%
%TF.FileFunction,Soldermask,Bot*%
%TF.FilePolarity,Negative*%
%FSLAX46Y46*%
G04 Gerber Fmt 4.6, Leading zero omitted, Abs format (unit mm)*
G04 Created by KiCad (PCBNEW (5.99.0-6900-ga9be08e1ce)) date 2020-11-13 16:54:07*
%MOMM*%
%LPD*%
G01*
G04 APERTURE LIST*
%ADD10O,2.000000X1.000000*%
%ADD11O,2.100000X1.050000*%
%ADD12C,0.650000*%
%ADD13O,1.700000X1.300000*%
%ADD14O,1.400000X1.000000*%
%ADD15C,6.100000*%
%ADD16R,1.700000X1.700000*%
%ADD17O,1.700000X1.700000*%
G04 APERTURE END LIST*
D10*
%TO.C,J2*%
X173900000Y-129320000D03*
X173900000Y-120680000D03*
D11*
X169720000Y-129320000D03*
X169720000Y-120680000D03*
D12*
X170220000Y-122110000D03*
X170220000Y-127890000D03*
%TD*%
D13*
%TO.C,J4*%
X118100000Y-122725000D03*
D14*
X121130000Y-122425000D03*
X121130000Y-117575000D03*
D13*
X118100000Y-117275000D03*
%TD*%
D15*
%TO.C,Module1*%
X163000000Y-82000000D03*
X130000000Y-130000000D03*
X130000000Y-82000000D03*
X163000000Y-130000000D03*
%TD*%
D16*
%TO.C,J1*%
X174500000Y-92500000D03*
D17*
X174500000Y-95040000D03*
X174500000Y-97580000D03*
X174500000Y-100120000D03*
X174500000Y-102660000D03*
X174500000Y-105200000D03*
X174500000Y-107740000D03*
X174500000Y-110280000D03*
X174500000Y-112820000D03*
X174500000Y-115360000D03*
%TD*%
%TO.C,JP1*%
G36*
X169250000Y-114849999D02*
G01*
X169250000Y-114350000D01*
X169254967Y-114350000D01*
X169256432Y-114270059D01*
X169298707Y-114134744D01*
X169377263Y-114016734D01*
X169485782Y-113925514D01*
X169615541Y-113868419D01*
X169750001Y-113850836D01*
X169750001Y-113850000D01*
X170250000Y-113850001D01*
X170250000Y-113850837D01*
X170256109Y-113850038D01*
X170396186Y-113871849D01*
X170524511Y-113932097D01*
X170630769Y-114025941D01*
X170706417Y-114145836D01*
X170745374Y-114282143D01*
X170744959Y-114350000D01*
X170750000Y-114350000D01*
X170749999Y-114850000D01*
X169250000Y-114849999D01*
G37*
G36*
X170744959Y-115650000D02*
G01*
X170744508Y-115723905D01*
X170703889Y-115859726D01*
X170626781Y-115978688D01*
X170519384Y-116071226D01*
X170390332Y-116129903D01*
X170249999Y-116150000D01*
X169750000Y-116149999D01*
X169737784Y-116149850D01*
X169597983Y-116126330D01*
X169470404Y-116064518D01*
X169365300Y-115969383D01*
X169291123Y-115848573D01*
X169253834Y-115711800D01*
X169254967Y-115650000D01*
X169250000Y-115650000D01*
X169250001Y-115150000D01*
X170750000Y-115150001D01*
X170750000Y-115650000D01*
X170744959Y-115650000D01*
G37*
%TD*%
M02*
