%TF.GenerationSoftware,KiCad,Pcbnew,(5.99.0-6900-ga9be08e1ce)*%
%TF.CreationDate,2020-11-13T16:54:07-06:00*%
%TF.ProjectId,rpi-cm4-base-carrier,7270692d-636d-4342-9d62-6173652d6361,v01*%
%TF.SameCoordinates,Original*%
%TF.FileFunction,Copper,L2,Bot*%
%TF.FilePolarity,Positive*%
%FSLAX46Y46*%
G04 Gerber Fmt 4.6, Leading zero omitted, Abs format (unit mm)*
G04 Created by KiCad (PCBNEW (5.99.0-6900-ga9be08e1ce)) date 2020-11-13 16:54:07*
%MOMM*%
%LPD*%
G01*
G04 APERTURE LIST*
%TA.AperFunction,ComponentPad*%
%ADD10O,2.000000X1.000000*%
%TD*%
%TA.AperFunction,ComponentPad*%
%ADD11O,2.100000X1.050000*%
%TD*%
%TA.AperFunction,ComponentPad*%
%ADD12O,1.700000X1.300000*%
%TD*%
%TA.AperFunction,ComponentPad*%
%ADD13O,1.400000X1.000000*%
%TD*%
%TA.AperFunction,ComponentPad*%
%ADD14R,1.700000X1.700000*%
%TD*%
%TA.AperFunction,ComponentPad*%
%ADD15O,1.700000X1.700000*%
%TD*%
%TA.AperFunction,ViaPad*%
%ADD16C,0.508000*%
%TD*%
%TA.AperFunction,Conductor*%
%ADD17C,0.200000*%
%TD*%
G04 APERTURE END LIST*
D10*
%TO.P,J2,G1,GND*%
%TO.N,GND*%
X173900000Y-129320000D03*
%TO.P,J2,G2,GND*%
X173900000Y-120680000D03*
D11*
%TO.P,J2,G3,GND*%
X169720000Y-129320000D03*
%TO.P,J2,G4,GND*%
X169720000Y-120680000D03*
%TD*%
D12*
%TO.P,J4,6,Shield*%
%TO.N,GND*%
X118100000Y-122725000D03*
D13*
X121130000Y-122425000D03*
X121130000Y-117575000D03*
D12*
X118100000Y-117275000D03*
%TD*%
D14*
%TO.P,J1,1,Pin_1*%
%TO.N,+3.3V*%
X174500000Y-92500000D03*
D15*
%TO.P,J1,2,Pin_2*%
%TO.N,GND*%
X174500000Y-95040000D03*
%TO.P,J1,3,Pin_3*%
%TO.N,/CM4 GPIO/GPIO14*%
X174500000Y-97580000D03*
%TO.P,J1,4,Pin_4*%
%TO.N,/CM4 GPIO/GPIO15*%
X174500000Y-100120000D03*
%TO.P,J1,5,Pin_5*%
%TO.N,/CM4 GPIO/GPIO10*%
X174500000Y-102660000D03*
%TO.P,J1,6,Pin_6*%
%TO.N,/CM4 GPIO/GPIO9*%
X174500000Y-105200000D03*
%TO.P,J1,7,Pin_7*%
%TO.N,/CM4 GPIO/GPIO11*%
X174500000Y-107740000D03*
%TO.P,J1,8,Pin_8*%
%TO.N,/CM4 GPIO/GPIO8*%
X174500000Y-110280000D03*
%TO.P,J1,9,Pin_9*%
%TO.N,/CM4 GPIO/GPIO7*%
X174500000Y-112820000D03*
%TO.P,J1,10,Pin_10*%
%TO.N,/CM4 GPIO/nRPIBOOT*%
X174500000Y-115360000D03*
%TD*%
%TA.AperFunction,SMDPad,CuDef*%
%TO.P,JP1,1,A*%
%TO.N,/CM4 GPIO/EEPROM_nWP*%
G36*
X169250000Y-114849999D02*
G01*
X169250000Y-114350000D01*
X169254967Y-114350000D01*
X169256432Y-114270059D01*
X169298707Y-114134744D01*
X169377263Y-114016734D01*
X169485782Y-113925514D01*
X169615541Y-113868419D01*
X169750001Y-113850836D01*
X169750001Y-113850000D01*
X170250000Y-113850001D01*
X170250000Y-113850837D01*
X170256109Y-113850038D01*
X170396186Y-113871849D01*
X170524511Y-113932097D01*
X170630769Y-114025941D01*
X170706417Y-114145836D01*
X170745374Y-114282143D01*
X170744959Y-114350000D01*
X170750000Y-114350000D01*
X170749999Y-114850000D01*
X169250000Y-114849999D01*
G37*
%TD.AperFunction*%
%TA.AperFunction,SMDPad,CuDef*%
%TO.P,JP1,2,B*%
%TO.N,GND*%
G36*
X170744959Y-115650000D02*
G01*
X170744508Y-115723905D01*
X170703889Y-115859726D01*
X170626781Y-115978688D01*
X170519384Y-116071226D01*
X170390332Y-116129903D01*
X170249999Y-116150000D01*
X169750000Y-116149999D01*
X169737784Y-116149850D01*
X169597983Y-116126330D01*
X169470404Y-116064518D01*
X169365300Y-115969383D01*
X169291123Y-115848573D01*
X169253834Y-115711800D01*
X169254967Y-115650000D01*
X169250000Y-115650000D01*
X169250001Y-115150000D01*
X170750000Y-115150001D01*
X170750000Y-115650000D01*
X170744959Y-115650000D01*
G37*
%TD.AperFunction*%
%TD*%
D16*
%TO.N,GND*%
X155000000Y-130000000D03*
X171000000Y-103500000D03*
X127000000Y-92000000D03*
X171000000Y-80500000D03*
X144000000Y-82000000D03*
X145500000Y-86000000D03*
X120000000Y-80500000D03*
X157000000Y-82000000D03*
X122000000Y-131500000D03*
X171000000Y-101500000D03*
X135000000Y-80000000D03*
X144000000Y-84000000D03*
X155500000Y-86000000D03*
X133500000Y-92500000D03*
X144000000Y-80000000D03*
X133500000Y-97500000D03*
X171000000Y-88400000D03*
X157000000Y-84000000D03*
X147000000Y-130000000D03*
X123000000Y-119700000D03*
X129000000Y-116000000D03*
X138000000Y-130000000D03*
X153500000Y-86000000D03*
X175500000Y-90000000D03*
X157000000Y-80000000D03*
X120000000Y-129500000D03*
X147500000Y-86000000D03*
X151500000Y-86000000D03*
X163000000Y-121000000D03*
X167000000Y-92000000D03*
X149500000Y-86000000D03*
X169000000Y-110000000D03*
X123600000Y-94900000D03*
X121000000Y-100500000D03*
X171000000Y-99000000D03*
%TO.N,/CM4 GPIO/nRPIBOOT*%
X163900000Y-94900000D03*
%TO.N,/CM4 GPIO/GPIO7*%
X163200000Y-108400000D03*
%TO.N,/CM4 GPIO/GPIO8*%
X163200000Y-107300000D03*
%TO.N,/CM4 GPIO/GPIO11*%
X162946000Y-106400000D03*
%TO.N,/CM4 GPIO/GPIO9*%
X163100000Y-105400000D03*
%TO.N,/CM4 GPIO/GPIO10*%
X163100000Y-104500000D03*
%TO.N,/CM4 GPIO/GPIO15*%
X163900000Y-102900000D03*
%TO.N,/CM4 GPIO/GPIO14*%
X163900000Y-102000000D03*
%TO.N,/CM4 GPIO/GPIO2*%
X160700000Y-101700000D03*
X171400000Y-90000000D03*
%TO.N,/CM4 GPIO/EEPROM_nWP*%
X160700000Y-110000000D03*
%TO.N,/CM4 GPIO/nLED_Activity*%
X124600000Y-86900000D03*
X163300000Y-110200000D03*
%TO.N,/CM4 GPIO/nPWR_LED*%
X163900000Y-93300000D03*
X158800000Y-91200000D03*
%TO.N,/CM4 GPIO/GPIO3*%
X171700000Y-94000000D03*
X160700000Y-102900000D03*
%TD*%
D17*
%TO.N,/CM4 GPIO/nRPIBOOT*%
X159800000Y-99000000D02*
X159800000Y-105819922D01*
X163900000Y-94900000D02*
X159800000Y-99000000D01*
X170140000Y-111000000D02*
X174500000Y-115360000D01*
X159800000Y-105819922D02*
X164980078Y-111000000D01*
X164980078Y-111000000D02*
X170140000Y-111000000D01*
%TO.N,/CM4 GPIO/GPIO7*%
X170080000Y-108400000D02*
X174500000Y-112820000D01*
X163200000Y-108400000D02*
X170080000Y-108400000D01*
%TO.N,/CM4 GPIO/GPIO8*%
X171520000Y-107300000D02*
X174500000Y-110280000D01*
X163200000Y-107300000D02*
X171520000Y-107300000D01*
%TO.N,/CM4 GPIO/GPIO11*%
X162946000Y-106400000D02*
X173160000Y-106400000D01*
X173160000Y-106400000D02*
X174500000Y-107740000D01*
%TO.N,/CM4 GPIO/GPIO9*%
X163100000Y-105400000D02*
X163300000Y-105200000D01*
X163300000Y-105200000D02*
X174500000Y-105200000D01*
%TO.N,/CM4 GPIO/GPIO10*%
X163100000Y-104500000D02*
X165300000Y-104500000D01*
X165300000Y-104500000D02*
X167140000Y-102660000D01*
X167140000Y-102660000D02*
X174500000Y-102660000D01*
%TO.N,/CM4 GPIO/GPIO15*%
X166680000Y-100120000D02*
X174500000Y-100120000D01*
X163900000Y-102900000D02*
X166200000Y-100600000D01*
X166200000Y-100600000D02*
X166680000Y-100120000D01*
%TO.N,/CM4 GPIO/GPIO14*%
X168320000Y-97580000D02*
X174500000Y-97580000D01*
X163900000Y-102000000D02*
X168320000Y-97580000D01*
%TO.N,/CM4 GPIO/GPIO2*%
X160700000Y-101700000D02*
X160700000Y-100700000D01*
X160700000Y-100700000D02*
X171400000Y-90000000D01*
%TO.N,/CM4 GPIO/EEPROM_nWP*%
X160700000Y-110000000D02*
X165050000Y-114350000D01*
X165050000Y-114350000D02*
X170000000Y-114350000D01*
%TO.N,/CM4 GPIO/nLED_Activity*%
X147000000Y-109300000D02*
X124600000Y-86900000D01*
X163300000Y-110200000D02*
X162400000Y-109300000D01*
X162400000Y-109300000D02*
X147000000Y-109300000D01*
%TO.N,/CM4 GPIO/nPWR_LED*%
X158800000Y-91200000D02*
X161800000Y-91200000D01*
X161800000Y-91200000D02*
X163900000Y-93300000D01*
%TO.N,/CM4 GPIO/GPIO3*%
X160700000Y-102900000D02*
X169600000Y-94000000D01*
X169600000Y-94000000D02*
X171700000Y-94000000D01*
%TD*%
%TA.AperFunction,Conductor*%
%TO.N,GND*%
G36*
X129228064Y-78901822D02*
G01*
X129258504Y-78954545D01*
X129247932Y-79014500D01*
X129197248Y-79054997D01*
X128929941Y-79137998D01*
X128612832Y-79277530D01*
X128610644Y-79278806D01*
X128315742Y-79450787D01*
X128315733Y-79450793D01*
X128313557Y-79452062D01*
X128311542Y-79453567D01*
X128311534Y-79453572D01*
X128037985Y-79657840D01*
X128035962Y-79659351D01*
X128034126Y-79661078D01*
X128034119Y-79661084D01*
X127919110Y-79769275D01*
X127783619Y-79896733D01*
X127559769Y-80161154D01*
X127367292Y-80449217D01*
X127208662Y-80757216D01*
X127085918Y-81081193D01*
X127085302Y-81083619D01*
X127085300Y-81083625D01*
X127057389Y-81193524D01*
X127000638Y-81416983D01*
X127000298Y-81419480D01*
X127000297Y-81419486D01*
X126968024Y-81656625D01*
X126953919Y-81760268D01*
X126953864Y-81762778D01*
X126953864Y-81762781D01*
X126946918Y-82081095D01*
X126946361Y-82106635D01*
X126978062Y-82451632D01*
X127048614Y-82790822D01*
X127049401Y-82793209D01*
X127049403Y-82793216D01*
X127057882Y-82818928D01*
X127157109Y-83119844D01*
X127302154Y-83434470D01*
X127481882Y-83730654D01*
X127693985Y-84004588D01*
X127935734Y-84252751D01*
X127957677Y-84270679D01*
X128202063Y-84470351D01*
X128202069Y-84470356D01*
X128204022Y-84471951D01*
X128495400Y-84659372D01*
X128806121Y-84812603D01*
X128808483Y-84813451D01*
X128808490Y-84813454D01*
X129017502Y-84888497D01*
X129132191Y-84929674D01*
X129469418Y-85009080D01*
X129813466Y-85049801D01*
X130017434Y-85050691D01*
X130157388Y-85051302D01*
X130159913Y-85051313D01*
X130273059Y-85038921D01*
X130501787Y-85013872D01*
X130501795Y-85013871D01*
X130504303Y-85013596D01*
X130506769Y-85013038D01*
X130506775Y-85013037D01*
X130682158Y-84973351D01*
X130842210Y-84937135D01*
X130844583Y-84936306D01*
X130844591Y-84936304D01*
X131166898Y-84823749D01*
X131169289Y-84822914D01*
X131481336Y-84672401D01*
X131504157Y-84658002D01*
X131772210Y-84488873D01*
X131772214Y-84488870D01*
X131774338Y-84487530D01*
X131795743Y-84470351D01*
X132042566Y-84272255D01*
X132042571Y-84272250D01*
X132044529Y-84270679D01*
X132288434Y-84024636D01*
X132289988Y-84022665D01*
X132289994Y-84022658D01*
X132403727Y-83878388D01*
X132502919Y-83752563D01*
X132685226Y-83457959D01*
X132833010Y-83144610D01*
X132944373Y-82816547D01*
X133017882Y-82477986D01*
X133052592Y-82133279D01*
X133055500Y-82000000D01*
X133046061Y-81833762D01*
X133036002Y-81656625D01*
X133036002Y-81656624D01*
X133035859Y-81654108D01*
X132989080Y-81381867D01*
X132977617Y-81315157D01*
X132977616Y-81315152D01*
X132977188Y-81312662D01*
X132880241Y-80980053D01*
X132875184Y-80967993D01*
X132747244Y-80662891D01*
X132747242Y-80662887D01*
X132746265Y-80660557D01*
X132576983Y-80358281D01*
X132374569Y-80077112D01*
X132141628Y-79820663D01*
X131881154Y-79592233D01*
X131857310Y-79575692D01*
X131598559Y-79396190D01*
X131598552Y-79396186D01*
X131596494Y-79394758D01*
X131291310Y-79230777D01*
X131288975Y-79229846D01*
X131288972Y-79229844D01*
X130971871Y-79103333D01*
X130971865Y-79103331D01*
X130969524Y-79102397D01*
X130967091Y-79101734D01*
X130967086Y-79101732D01*
X130798850Y-79055866D01*
X130749133Y-79020730D01*
X130733633Y-78961856D01*
X130759603Y-78906794D01*
X130814890Y-78881306D01*
X130822260Y-78881000D01*
X144911000Y-78881000D01*
X144968208Y-78901822D01*
X144998648Y-78954545D01*
X145000000Y-78970000D01*
X145000000Y-85000000D01*
X156000000Y-85000000D01*
X156000000Y-78970000D01*
X156020822Y-78912792D01*
X156073545Y-78882352D01*
X156089000Y-78881000D01*
X162170856Y-78881000D01*
X162228064Y-78901822D01*
X162258504Y-78954545D01*
X162247932Y-79014500D01*
X162197248Y-79054997D01*
X161929941Y-79137998D01*
X161612832Y-79277530D01*
X161610644Y-79278806D01*
X161315742Y-79450787D01*
X161315733Y-79450793D01*
X161313557Y-79452062D01*
X161311542Y-79453567D01*
X161311534Y-79453572D01*
X161037985Y-79657840D01*
X161035962Y-79659351D01*
X161034126Y-79661078D01*
X161034119Y-79661084D01*
X160919110Y-79769275D01*
X160783619Y-79896733D01*
X160559769Y-80161154D01*
X160367292Y-80449217D01*
X160208662Y-80757216D01*
X160085918Y-81081193D01*
X160085302Y-81083619D01*
X160085300Y-81083625D01*
X160057389Y-81193524D01*
X160000638Y-81416983D01*
X160000298Y-81419480D01*
X160000297Y-81419486D01*
X159968024Y-81656625D01*
X159953919Y-81760268D01*
X159953864Y-81762778D01*
X159953864Y-81762781D01*
X159946918Y-82081095D01*
X159946361Y-82106635D01*
X159978062Y-82451632D01*
X160048614Y-82790822D01*
X160049401Y-82793209D01*
X160049403Y-82793216D01*
X160057882Y-82818928D01*
X160157109Y-83119844D01*
X160302154Y-83434470D01*
X160481882Y-83730654D01*
X160693985Y-84004588D01*
X160935734Y-84252751D01*
X160957677Y-84270679D01*
X161202063Y-84470351D01*
X161202069Y-84470356D01*
X161204022Y-84471951D01*
X161495400Y-84659372D01*
X161806121Y-84812603D01*
X161808483Y-84813451D01*
X161808490Y-84813454D01*
X162017502Y-84888497D01*
X162132191Y-84929674D01*
X162469418Y-85009080D01*
X162813466Y-85049801D01*
X163017434Y-85050691D01*
X163157388Y-85051302D01*
X163159913Y-85051313D01*
X163273059Y-85038921D01*
X163501787Y-85013872D01*
X163501795Y-85013871D01*
X163504303Y-85013596D01*
X163506769Y-85013038D01*
X163506775Y-85013037D01*
X163682158Y-84973351D01*
X163842210Y-84937135D01*
X163844583Y-84936306D01*
X163844591Y-84936304D01*
X164166898Y-84823749D01*
X164169289Y-84822914D01*
X164481336Y-84672401D01*
X164504157Y-84658002D01*
X164772210Y-84488873D01*
X164772214Y-84488870D01*
X164774338Y-84487530D01*
X164795743Y-84470351D01*
X165042566Y-84272255D01*
X165042571Y-84272250D01*
X165044529Y-84270679D01*
X165288434Y-84024636D01*
X165289988Y-84022665D01*
X165289994Y-84022658D01*
X165403727Y-83878388D01*
X165502919Y-83752563D01*
X165685226Y-83457959D01*
X165833010Y-83144610D01*
X165944373Y-82816547D01*
X166017882Y-82477986D01*
X166052592Y-82133279D01*
X166055500Y-82000000D01*
X166046061Y-81833762D01*
X166036002Y-81656625D01*
X166036002Y-81656624D01*
X166035859Y-81654108D01*
X165989080Y-81381867D01*
X165977617Y-81315157D01*
X165977616Y-81315152D01*
X165977188Y-81312662D01*
X165880241Y-80980053D01*
X165875184Y-80967993D01*
X165747244Y-80662891D01*
X165747242Y-80662887D01*
X165746265Y-80660557D01*
X165576983Y-80358281D01*
X165374569Y-80077112D01*
X165141628Y-79820663D01*
X164881154Y-79592233D01*
X164857310Y-79575692D01*
X164598559Y-79396190D01*
X164598552Y-79396186D01*
X164596494Y-79394758D01*
X164291310Y-79230777D01*
X164288975Y-79229846D01*
X164288972Y-79229844D01*
X163971871Y-79103333D01*
X163971865Y-79103331D01*
X163969524Y-79102397D01*
X163967091Y-79101734D01*
X163967086Y-79101732D01*
X163798850Y-79055866D01*
X163749133Y-79020730D01*
X163733633Y-78961856D01*
X163759603Y-78906794D01*
X163814890Y-78881306D01*
X163822260Y-78881000D01*
X172906601Y-78881000D01*
X172924401Y-78883008D01*
X172927949Y-78884304D01*
X172933518Y-78884857D01*
X172933519Y-78884857D01*
X172934051Y-78884910D01*
X172937429Y-78885245D01*
X172989161Y-78885894D01*
X173156568Y-78887995D01*
X173164754Y-78888476D01*
X173380156Y-78911115D01*
X173482808Y-78921905D01*
X173492000Y-78923360D01*
X173801919Y-78989236D01*
X173810900Y-78991642D01*
X174112240Y-79089553D01*
X174120932Y-79092890D01*
X174410365Y-79221755D01*
X174418665Y-79225984D01*
X174503797Y-79275135D01*
X174693056Y-79384405D01*
X174700848Y-79389465D01*
X174955126Y-79574209D01*
X174957167Y-79575692D01*
X174964406Y-79581554D01*
X175199867Y-79793563D01*
X175206448Y-79800144D01*
X175307365Y-79912224D01*
X175418439Y-80035585D01*
X175424301Y-80042823D01*
X175447862Y-80075252D01*
X175610535Y-80299153D01*
X175615608Y-80306966D01*
X175774017Y-80581335D01*
X175774019Y-80581339D01*
X175778247Y-80589637D01*
X175804927Y-80649561D01*
X175907111Y-80879071D01*
X175910449Y-80887767D01*
X176008355Y-81189090D01*
X176010766Y-81198089D01*
X176076639Y-81507995D01*
X176078096Y-81517196D01*
X176111525Y-81835252D01*
X176112006Y-81843438D01*
X176113858Y-81991051D01*
X176114408Y-82034879D01*
X176115057Y-82038497D01*
X176117603Y-82052691D01*
X176119001Y-82068404D01*
X176119000Y-129906602D01*
X176116992Y-129924402D01*
X176115696Y-129927950D01*
X176114755Y-129937430D01*
X176114631Y-129947314D01*
X176112005Y-130156570D01*
X176111524Y-130164756D01*
X176078097Y-130482802D01*
X176076641Y-130491998D01*
X176013124Y-130790822D01*
X176010766Y-130801914D01*
X176008358Y-130810901D01*
X175924987Y-131067493D01*
X175910453Y-131112224D01*
X175907115Y-131120921D01*
X175778246Y-131410365D01*
X175774016Y-131418665D01*
X175615608Y-131693035D01*
X175610535Y-131700848D01*
X175424304Y-131957174D01*
X175418441Y-131964414D01*
X175206449Y-132199855D01*
X175199861Y-132206442D01*
X174964405Y-132418446D01*
X174957166Y-132424308D01*
X174883561Y-132477786D01*
X174700851Y-132610534D01*
X174693056Y-132615596D01*
X174503798Y-132724865D01*
X174418666Y-132774016D01*
X174410366Y-132778245D01*
X174120931Y-132907111D01*
X174112233Y-132910450D01*
X173810906Y-133008357D01*
X173801920Y-133010764D01*
X173570257Y-133060006D01*
X173492005Y-133076639D01*
X173482806Y-133078096D01*
X173482794Y-133078097D01*
X173164748Y-133111525D01*
X173156562Y-133112006D01*
X173008949Y-133113858D01*
X172965121Y-133114408D01*
X172957940Y-133115696D01*
X172947314Y-133117602D01*
X172931601Y-133119000D01*
X163835071Y-133119000D01*
X163777863Y-133098178D01*
X163747423Y-133045455D01*
X163757995Y-132985500D01*
X163804631Y-132946367D01*
X163815429Y-132943195D01*
X163818258Y-132942555D01*
X163842210Y-132937135D01*
X163844583Y-132936306D01*
X163844591Y-132936304D01*
X164166898Y-132823749D01*
X164169289Y-132822914D01*
X164481336Y-132672401D01*
X164575053Y-132613270D01*
X164772210Y-132488873D01*
X164772214Y-132488870D01*
X164774338Y-132487530D01*
X164853116Y-132424304D01*
X165042566Y-132272255D01*
X165042571Y-132272250D01*
X165044529Y-132270679D01*
X165195767Y-132118115D01*
X165286664Y-132026422D01*
X165286668Y-132026417D01*
X165288434Y-132024636D01*
X165289988Y-132022665D01*
X165289994Y-132022658D01*
X165403727Y-131878388D01*
X165502919Y-131752563D01*
X165685226Y-131457959D01*
X165833010Y-131144610D01*
X165879874Y-131006553D01*
X165943565Y-130818928D01*
X165943566Y-130818924D01*
X165944373Y-130816547D01*
X166017882Y-130477986D01*
X166030468Y-130353000D01*
X166052416Y-130135028D01*
X166052416Y-130135025D01*
X166052592Y-130133279D01*
X166055500Y-130000000D01*
X166054070Y-129974807D01*
X166036002Y-129656625D01*
X166036002Y-129656624D01*
X166035859Y-129654108D01*
X166023137Y-129580067D01*
X168195591Y-129580067D01*
X168195804Y-129583877D01*
X168231353Y-129704664D01*
X168234600Y-129712701D01*
X168324421Y-129884511D01*
X168329169Y-129891766D01*
X168450651Y-130042860D01*
X168456711Y-130049048D01*
X168605228Y-130173669D01*
X168612382Y-130178567D01*
X168782273Y-130271964D01*
X168790236Y-130275378D01*
X168975044Y-130334003D01*
X168983510Y-130335802D01*
X169134358Y-130352723D01*
X169139318Y-130353000D01*
X169450306Y-130353000D01*
X169462329Y-130348624D01*
X169466000Y-130342266D01*
X169466000Y-130337306D01*
X169973999Y-130337306D01*
X169978375Y-130349329D01*
X169984733Y-130353000D01*
X170293809Y-130353000D01*
X170298169Y-130352787D01*
X170442280Y-130338656D01*
X170450781Y-130336973D01*
X170636388Y-130280936D01*
X170644394Y-130277635D01*
X170815577Y-130186615D01*
X170822791Y-130181822D01*
X170973040Y-130059282D01*
X170979181Y-130053184D01*
X171102772Y-129903789D01*
X171107607Y-129896621D01*
X171199826Y-129726065D01*
X171203180Y-129718087D01*
X171243141Y-129588992D01*
X171242705Y-129580067D01*
X172426527Y-129580067D01*
X172426740Y-129583876D01*
X172459534Y-129695299D01*
X172462781Y-129703336D01*
X172550340Y-129870821D01*
X172555087Y-129878076D01*
X172673513Y-130025368D01*
X172679573Y-130031556D01*
X172824352Y-130153041D01*
X172831506Y-130157939D01*
X172997122Y-130248986D01*
X173005085Y-130252400D01*
X173185233Y-130309547D01*
X173193716Y-130311350D01*
X173339685Y-130327722D01*
X173344649Y-130328000D01*
X173630306Y-130328000D01*
X173642329Y-130323624D01*
X173646000Y-130317266D01*
X173646000Y-130312306D01*
X174153999Y-130312306D01*
X174158375Y-130324329D01*
X174164733Y-130328000D01*
X174448811Y-130328000D01*
X174453171Y-130327787D01*
X174592422Y-130314133D01*
X174600931Y-130312448D01*
X174781851Y-130257825D01*
X174789873Y-130254519D01*
X174956743Y-130165792D01*
X174963957Y-130161000D01*
X175110424Y-130041543D01*
X175116565Y-130035445D01*
X175237041Y-129889815D01*
X175241886Y-129882632D01*
X175331774Y-129716387D01*
X175335136Y-129708390D01*
X175372096Y-129588991D01*
X175371471Y-129576213D01*
X175370375Y-129575029D01*
X175366122Y-129574000D01*
X174169694Y-129573999D01*
X174157671Y-129578375D01*
X174154000Y-129584733D01*
X174153999Y-130312306D01*
X173646000Y-130312306D01*
X173646001Y-129589694D01*
X173641625Y-129577671D01*
X173635267Y-129574000D01*
X172439527Y-129573999D01*
X172427504Y-129578375D01*
X172426527Y-129580067D01*
X171242705Y-129580067D01*
X171242516Y-129576213D01*
X171241420Y-129575029D01*
X171237167Y-129574000D01*
X169989694Y-129573999D01*
X169977671Y-129578375D01*
X169974000Y-129584733D01*
X169973999Y-130337306D01*
X169466000Y-130337306D01*
X169466001Y-129589694D01*
X169461625Y-129577671D01*
X169455267Y-129574000D01*
X168208591Y-129573999D01*
X168196568Y-129578375D01*
X168195591Y-129580067D01*
X166023137Y-129580067D01*
X165977188Y-129312662D01*
X165900923Y-129051008D01*
X168196859Y-129051008D01*
X168197484Y-129063787D01*
X168198580Y-129064971D01*
X168202833Y-129066000D01*
X169450306Y-129066001D01*
X169462329Y-129061625D01*
X169466000Y-129055267D01*
X169466001Y-128302694D01*
X169461625Y-128290671D01*
X169455267Y-128287000D01*
X169146191Y-128287000D01*
X169141831Y-128287213D01*
X168997720Y-128301344D01*
X168989219Y-128303027D01*
X168803612Y-128359064D01*
X168795606Y-128362365D01*
X168624423Y-128453385D01*
X168617209Y-128458178D01*
X168466960Y-128580718D01*
X168460819Y-128586816D01*
X168337228Y-128736211D01*
X168332393Y-128743379D01*
X168240174Y-128913935D01*
X168236820Y-128921913D01*
X168196859Y-129051008D01*
X165900923Y-129051008D01*
X165880241Y-128980053D01*
X165865417Y-128944701D01*
X165747244Y-128662891D01*
X165747242Y-128662887D01*
X165746265Y-128660557D01*
X165606565Y-128411103D01*
X165578217Y-128360484D01*
X165578215Y-128360481D01*
X165576983Y-128358281D01*
X165553648Y-128325867D01*
X165376042Y-128079158D01*
X165376041Y-128079157D01*
X165374569Y-128077112D01*
X165265004Y-127956489D01*
X169693683Y-127956489D01*
X169695254Y-127962352D01*
X169716953Y-128043331D01*
X169730952Y-128095577D01*
X169804251Y-128219519D01*
X169851649Y-128264972D01*
X169900979Y-128312278D01*
X169908180Y-128319184D01*
X169925835Y-128328650D01*
X169927058Y-128329306D01*
X169967636Y-128374691D01*
X169974000Y-128407742D01*
X169973999Y-129050306D01*
X169978375Y-129062329D01*
X169984733Y-129066000D01*
X171231409Y-129066001D01*
X171243432Y-129061625D01*
X171244409Y-129059933D01*
X171244196Y-129056123D01*
X171242691Y-129051009D01*
X172427904Y-129051009D01*
X172428529Y-129063787D01*
X172429625Y-129064971D01*
X172433878Y-129066000D01*
X173630306Y-129066001D01*
X173642329Y-129061625D01*
X173646000Y-129055267D01*
X173646000Y-129050306D01*
X174153999Y-129050306D01*
X174158375Y-129062329D01*
X174164733Y-129066000D01*
X175360473Y-129066001D01*
X175372496Y-129061625D01*
X175373473Y-129059933D01*
X175373260Y-129056124D01*
X175340466Y-128944701D01*
X175337219Y-128936664D01*
X175249660Y-128769179D01*
X175244913Y-128761924D01*
X175126487Y-128614632D01*
X175120427Y-128608444D01*
X174975648Y-128486959D01*
X174968494Y-128482061D01*
X174802878Y-128391014D01*
X174794915Y-128387600D01*
X174614767Y-128330453D01*
X174606284Y-128328650D01*
X174460315Y-128312278D01*
X174455351Y-128312000D01*
X174169694Y-128312000D01*
X174157671Y-128316376D01*
X174154000Y-128322734D01*
X174153999Y-129050306D01*
X173646000Y-129050306D01*
X173646001Y-128327694D01*
X173641625Y-128315671D01*
X173635267Y-128312000D01*
X173351189Y-128312000D01*
X173346829Y-128312213D01*
X173207578Y-128325867D01*
X173199069Y-128327552D01*
X173018149Y-128382175D01*
X173010127Y-128385481D01*
X172843257Y-128474208D01*
X172836043Y-128479000D01*
X172689576Y-128598457D01*
X172683435Y-128604555D01*
X172562959Y-128750185D01*
X172558114Y-128757368D01*
X172468226Y-128923613D01*
X172464864Y-128931610D01*
X172427904Y-129051009D01*
X171242691Y-129051009D01*
X171208647Y-128935336D01*
X171205400Y-128927299D01*
X171115579Y-128755489D01*
X171110831Y-128748234D01*
X170989349Y-128597140D01*
X170983289Y-128590952D01*
X170834772Y-128466331D01*
X170827618Y-128461433D01*
X170657732Y-128368038D01*
X170655541Y-128367099D01*
X170654859Y-128366459D01*
X170653912Y-128365938D01*
X170654046Y-128365695D01*
X170611162Y-128325423D01*
X170603955Y-128264972D01*
X170622626Y-128227850D01*
X170663996Y-128178896D01*
X170663999Y-128178891D01*
X170667916Y-128174256D01*
X170727858Y-128043331D01*
X170750384Y-127901110D01*
X170750500Y-127890000D01*
X170730958Y-127747338D01*
X170673771Y-127615187D01*
X170583152Y-127503282D01*
X170514341Y-127454380D01*
X170470728Y-127423386D01*
X170465779Y-127419869D01*
X170330297Y-127371093D01*
X170324246Y-127370649D01*
X170324243Y-127370648D01*
X170192739Y-127360991D01*
X170192737Y-127360991D01*
X170186690Y-127360547D01*
X170045536Y-127389008D01*
X170040133Y-127391761D01*
X169922644Y-127451624D01*
X169922641Y-127451626D01*
X169917236Y-127454380D01*
X169811243Y-127551847D01*
X169808044Y-127557007D01*
X169808042Y-127557009D01*
X169738561Y-127669069D01*
X169738560Y-127669072D01*
X169735364Y-127674226D01*
X169695191Y-127812503D01*
X169695127Y-127818567D01*
X169695127Y-127818570D01*
X169695086Y-127822523D01*
X169693683Y-127956489D01*
X165265004Y-127956489D01*
X165141628Y-127820663D01*
X164881154Y-127592233D01*
X164759728Y-127507997D01*
X164598559Y-127396190D01*
X164598552Y-127396186D01*
X164596494Y-127394758D01*
X164291310Y-127230777D01*
X164288975Y-127229846D01*
X164288972Y-127229844D01*
X163971871Y-127103333D01*
X163971865Y-127103331D01*
X163969524Y-127102397D01*
X163967091Y-127101734D01*
X163967086Y-127101732D01*
X163723272Y-127035261D01*
X163635274Y-127011270D01*
X163464066Y-126984919D01*
X163295348Y-126958950D01*
X163295341Y-126958949D01*
X163292857Y-126958567D01*
X163119766Y-126951766D01*
X162949195Y-126945064D01*
X162949194Y-126945064D01*
X162946674Y-126944965D01*
X162879188Y-126949980D01*
X162603701Y-126970452D01*
X162603693Y-126970453D01*
X162601177Y-126970640D01*
X162260808Y-127035261D01*
X162258395Y-127036010D01*
X162258392Y-127036011D01*
X162044595Y-127102397D01*
X161929941Y-127137998D01*
X161612832Y-127277530D01*
X161610644Y-127278806D01*
X161315742Y-127450787D01*
X161315733Y-127450793D01*
X161313557Y-127452062D01*
X161311542Y-127453567D01*
X161311534Y-127453572D01*
X161037985Y-127657840D01*
X161035962Y-127659351D01*
X161034126Y-127661078D01*
X161034119Y-127661084D01*
X160936041Y-127753348D01*
X160783619Y-127896733D01*
X160559769Y-128161154D01*
X160423447Y-128365175D01*
X160387724Y-128418639D01*
X160367292Y-128449217D01*
X160366141Y-128451453D01*
X160366138Y-128451457D01*
X160302711Y-128574608D01*
X160208662Y-128757216D01*
X160085918Y-129081193D01*
X160000638Y-129416983D01*
X160000298Y-129419480D01*
X160000297Y-129419486D01*
X159958574Y-129726065D01*
X159953919Y-129760268D01*
X159953864Y-129762778D01*
X159953864Y-129762781D01*
X159948726Y-129998270D01*
X159946361Y-130106635D01*
X159978062Y-130451632D01*
X160048614Y-130790822D01*
X160049401Y-130793209D01*
X160049403Y-130793216D01*
X160057882Y-130818928D01*
X160157109Y-131119844D01*
X160302154Y-131434470D01*
X160481882Y-131730654D01*
X160693985Y-132004588D01*
X160935734Y-132252751D01*
X160957677Y-132270679D01*
X161202063Y-132470351D01*
X161202069Y-132470356D01*
X161204022Y-132471951D01*
X161495400Y-132659372D01*
X161806121Y-132812603D01*
X161808483Y-132813451D01*
X161808490Y-132813454D01*
X162017502Y-132888497D01*
X162132191Y-132929674D01*
X162134636Y-132930250D01*
X162134637Y-132930250D01*
X162190352Y-132943369D01*
X162241265Y-132976749D01*
X162258810Y-133035046D01*
X162234778Y-133090981D01*
X162180414Y-133118383D01*
X162169953Y-133119000D01*
X130835071Y-133119000D01*
X130777863Y-133098178D01*
X130747423Y-133045455D01*
X130757995Y-132985500D01*
X130804631Y-132946367D01*
X130815429Y-132943195D01*
X130818258Y-132942555D01*
X130842210Y-132937135D01*
X130844583Y-132936306D01*
X130844591Y-132936304D01*
X131166898Y-132823749D01*
X131169289Y-132822914D01*
X131481336Y-132672401D01*
X131575053Y-132613270D01*
X131772210Y-132488873D01*
X131772214Y-132488870D01*
X131774338Y-132487530D01*
X131853116Y-132424304D01*
X132042566Y-132272255D01*
X132042571Y-132272250D01*
X132044529Y-132270679D01*
X132195767Y-132118115D01*
X132286664Y-132026422D01*
X132286668Y-132026417D01*
X132288434Y-132024636D01*
X132289988Y-132022665D01*
X132289994Y-132022658D01*
X132403727Y-131878388D01*
X132502919Y-131752563D01*
X132685226Y-131457959D01*
X132833010Y-131144610D01*
X132879874Y-131006553D01*
X132943565Y-130818928D01*
X132943566Y-130818924D01*
X132944373Y-130816547D01*
X133017882Y-130477986D01*
X133030468Y-130353000D01*
X133052416Y-130135028D01*
X133052416Y-130135025D01*
X133052592Y-130133279D01*
X133055500Y-130000000D01*
X133054070Y-129974807D01*
X133036002Y-129656625D01*
X133036002Y-129656624D01*
X133035859Y-129654108D01*
X132977188Y-129312662D01*
X132880241Y-128980053D01*
X132865417Y-128944701D01*
X132747244Y-128662891D01*
X132747242Y-128662887D01*
X132746265Y-128660557D01*
X132606565Y-128411103D01*
X132578217Y-128360484D01*
X132578215Y-128360481D01*
X132576983Y-128358281D01*
X132553648Y-128325867D01*
X132376042Y-128079158D01*
X132376041Y-128079157D01*
X132374569Y-128077112D01*
X132141628Y-127820663D01*
X131881154Y-127592233D01*
X131759728Y-127507997D01*
X131598559Y-127396190D01*
X131598552Y-127396186D01*
X131596494Y-127394758D01*
X131291310Y-127230777D01*
X131288975Y-127229846D01*
X131288972Y-127229844D01*
X130971871Y-127103333D01*
X130971865Y-127103331D01*
X130969524Y-127102397D01*
X130967091Y-127101734D01*
X130967086Y-127101732D01*
X130723272Y-127035261D01*
X130635274Y-127011270D01*
X130464066Y-126984919D01*
X130295348Y-126958950D01*
X130295341Y-126958949D01*
X130292857Y-126958567D01*
X130119766Y-126951766D01*
X129949195Y-126945064D01*
X129949194Y-126945064D01*
X129946674Y-126944965D01*
X129879188Y-126949980D01*
X129603701Y-126970452D01*
X129603693Y-126970453D01*
X129601177Y-126970640D01*
X129260808Y-127035261D01*
X129258395Y-127036010D01*
X129258392Y-127036011D01*
X129044595Y-127102397D01*
X128929941Y-127137998D01*
X128612832Y-127277530D01*
X128610644Y-127278806D01*
X128315742Y-127450787D01*
X128315733Y-127450793D01*
X128313557Y-127452062D01*
X128311542Y-127453567D01*
X128311534Y-127453572D01*
X128037985Y-127657840D01*
X128035962Y-127659351D01*
X128034126Y-127661078D01*
X128034119Y-127661084D01*
X127936041Y-127753348D01*
X127783619Y-127896733D01*
X127559769Y-128161154D01*
X127423447Y-128365175D01*
X127387724Y-128418639D01*
X127367292Y-128449217D01*
X127366141Y-128451453D01*
X127366138Y-128451457D01*
X127302711Y-128574608D01*
X127208662Y-128757216D01*
X127085918Y-129081193D01*
X127000638Y-129416983D01*
X127000298Y-129419480D01*
X127000297Y-129419486D01*
X126958574Y-129726065D01*
X126953919Y-129760268D01*
X126953864Y-129762778D01*
X126953864Y-129762781D01*
X126948726Y-129998270D01*
X126946361Y-130106635D01*
X126978062Y-130451632D01*
X127048614Y-130790822D01*
X127049401Y-130793209D01*
X127049403Y-130793216D01*
X127057882Y-130818928D01*
X127157109Y-131119844D01*
X127302154Y-131434470D01*
X127481882Y-131730654D01*
X127693985Y-132004588D01*
X127935734Y-132252751D01*
X127957677Y-132270679D01*
X128202063Y-132470351D01*
X128202069Y-132470356D01*
X128204022Y-132471951D01*
X128495400Y-132659372D01*
X128806121Y-132812603D01*
X128808483Y-132813451D01*
X128808490Y-132813454D01*
X129017502Y-132888497D01*
X129132191Y-132929674D01*
X129134636Y-132930250D01*
X129134637Y-132930250D01*
X129190352Y-132943369D01*
X129241265Y-132976749D01*
X129258810Y-133035046D01*
X129234778Y-133090981D01*
X129180414Y-133118383D01*
X129169953Y-133119000D01*
X120093398Y-133119000D01*
X120075598Y-133116992D01*
X120072050Y-133115696D01*
X120066481Y-133115143D01*
X120066480Y-133115143D01*
X120065612Y-133115057D01*
X120062570Y-133114755D01*
X120010850Y-133114106D01*
X119843430Y-133112005D01*
X119835244Y-133111524D01*
X119621406Y-133089049D01*
X119517194Y-133078096D01*
X119508002Y-133076641D01*
X119198080Y-133010764D01*
X119189099Y-133008358D01*
X118887769Y-132910450D01*
X118879079Y-132907115D01*
X118589635Y-132778246D01*
X118581335Y-132774016D01*
X118306965Y-132615608D01*
X118299152Y-132610535D01*
X118042826Y-132424304D01*
X118035586Y-132418441D01*
X117800145Y-132206449D01*
X117793558Y-132199861D01*
X117581554Y-131964405D01*
X117575692Y-131957166D01*
X117467446Y-131808180D01*
X117389464Y-131700848D01*
X117384404Y-131693056D01*
X117233785Y-131432177D01*
X117225984Y-131418666D01*
X117221755Y-131410366D01*
X117092889Y-131120931D01*
X117089550Y-131112233D01*
X117052182Y-130997226D01*
X116991643Y-130810906D01*
X116989234Y-130801914D01*
X116986877Y-130790822D01*
X116923361Y-130492003D01*
X116921904Y-130482804D01*
X116888475Y-130164748D01*
X116887994Y-130156562D01*
X116886008Y-129998270D01*
X116885592Y-129965121D01*
X116882398Y-129947314D01*
X116881000Y-129931601D01*
X116881000Y-123555991D01*
X116901822Y-123498783D01*
X116954545Y-123468343D01*
X117014500Y-123478915D01*
X117036913Y-123497309D01*
X117096749Y-123565538D01*
X117102647Y-123571135D01*
X117263387Y-123697853D01*
X117270189Y-123702270D01*
X117451335Y-123797576D01*
X117458828Y-123800680D01*
X117654307Y-123861378D01*
X117662247Y-123863065D01*
X117828069Y-123882691D01*
X117830725Y-123882848D01*
X117842329Y-123878624D01*
X117846000Y-123872266D01*
X117846000Y-122989734D01*
X118354000Y-122989734D01*
X118354000Y-123867306D01*
X118358376Y-123879329D01*
X118363317Y-123882182D01*
X118507878Y-123868898D01*
X118515866Y-123867418D01*
X118712855Y-123811862D01*
X118720442Y-123808949D01*
X118904015Y-123718422D01*
X118910932Y-123714182D01*
X119074929Y-123591719D01*
X119080968Y-123586282D01*
X119219904Y-123435982D01*
X119224843Y-123429545D01*
X119334066Y-123256439D01*
X119337753Y-123249201D01*
X119413596Y-123059097D01*
X119415902Y-123051313D01*
X119427225Y-122994391D01*
X119425279Y-122981748D01*
X119422182Y-122979032D01*
X119422012Y-122979000D01*
X118369694Y-122979000D01*
X118357671Y-122983376D01*
X118354000Y-122989734D01*
X117846000Y-122989734D01*
X117846000Y-122685068D01*
X119956527Y-122685068D01*
X119956740Y-122688877D01*
X119989536Y-122800307D01*
X119992778Y-122808330D01*
X120080340Y-122975821D01*
X120085087Y-122983076D01*
X120203513Y-123130368D01*
X120209573Y-123136556D01*
X120354352Y-123258041D01*
X120361506Y-123262939D01*
X120527122Y-123353986D01*
X120535085Y-123357400D01*
X120715233Y-123414547D01*
X120723716Y-123416350D01*
X120863098Y-123431984D01*
X120872329Y-123428624D01*
X120876000Y-123422266D01*
X120876000Y-122694694D01*
X120874195Y-122689734D01*
X121384000Y-122689734D01*
X121384000Y-123417011D01*
X121388376Y-123429034D01*
X121393176Y-123431805D01*
X121522423Y-123419133D01*
X121530930Y-123417449D01*
X121711851Y-123362825D01*
X121719873Y-123359519D01*
X121886743Y-123270792D01*
X121893957Y-123266000D01*
X122040424Y-123146543D01*
X122046565Y-123140445D01*
X122167041Y-122994815D01*
X122171886Y-122987632D01*
X122261774Y-122821387D01*
X122265136Y-122813390D01*
X122302096Y-122693991D01*
X122301471Y-122681213D01*
X122300375Y-122680029D01*
X122296122Y-122679000D01*
X121399694Y-122679000D01*
X121387671Y-122683376D01*
X121384000Y-122689734D01*
X120874195Y-122689734D01*
X120871624Y-122682671D01*
X120865266Y-122679000D01*
X119969527Y-122679000D01*
X119957504Y-122683376D01*
X119956527Y-122685068D01*
X117846000Y-122685068D01*
X117846000Y-121582694D01*
X117844195Y-121577734D01*
X118354000Y-121577734D01*
X118354000Y-122455306D01*
X118358376Y-122467329D01*
X118364734Y-122471000D01*
X119415755Y-122471000D01*
X119427778Y-122466624D01*
X119430028Y-122462728D01*
X119424063Y-122428012D01*
X119421960Y-122420165D01*
X119351119Y-122228144D01*
X119347620Y-122220808D01*
X119321254Y-122176489D01*
X169693683Y-122176489D01*
X169695254Y-122182352D01*
X169716953Y-122263331D01*
X169730952Y-122315577D01*
X169804251Y-122439519D01*
X169908180Y-122539184D01*
X170035083Y-122607228D01*
X170175609Y-122638639D01*
X170247507Y-122634871D01*
X170313347Y-122631421D01*
X170313350Y-122631420D01*
X170319406Y-122631103D01*
X170455879Y-122585175D01*
X170460899Y-122581764D01*
X170460902Y-122581762D01*
X170519332Y-122542052D01*
X170574974Y-122504238D01*
X170667916Y-122394256D01*
X170727858Y-122263331D01*
X170743064Y-122167329D01*
X170749873Y-122124337D01*
X170749873Y-122124335D01*
X170750384Y-122121110D01*
X170750500Y-122110000D01*
X170730958Y-121967338D01*
X170673771Y-121835187D01*
X170621049Y-121770081D01*
X170601229Y-121712518D01*
X170623046Y-121655682D01*
X170648432Y-121635489D01*
X170815577Y-121546616D01*
X170822791Y-121541822D01*
X170973040Y-121419282D01*
X170979181Y-121413184D01*
X171102772Y-121263789D01*
X171107607Y-121256621D01*
X171199826Y-121086065D01*
X171203180Y-121078087D01*
X171243141Y-120948992D01*
X171242705Y-120940067D01*
X172426527Y-120940067D01*
X172426740Y-120943876D01*
X172459534Y-121055299D01*
X172462781Y-121063336D01*
X172550340Y-121230821D01*
X172555087Y-121238076D01*
X172673513Y-121385368D01*
X172679573Y-121391556D01*
X172824352Y-121513041D01*
X172831506Y-121517939D01*
X172997122Y-121608986D01*
X173005085Y-121612400D01*
X173185233Y-121669547D01*
X173193716Y-121671350D01*
X173339685Y-121687722D01*
X173344649Y-121688000D01*
X173630306Y-121688000D01*
X173642329Y-121683624D01*
X173646000Y-121677266D01*
X173646000Y-121672306D01*
X174153999Y-121672306D01*
X174158375Y-121684329D01*
X174164733Y-121688000D01*
X174448811Y-121688000D01*
X174453171Y-121687787D01*
X174592422Y-121674133D01*
X174600931Y-121672448D01*
X174781851Y-121617825D01*
X174789873Y-121614519D01*
X174956743Y-121525792D01*
X174963957Y-121521000D01*
X175110424Y-121401543D01*
X175116565Y-121395445D01*
X175237041Y-121249815D01*
X175241886Y-121242632D01*
X175331774Y-121076387D01*
X175335136Y-121068390D01*
X175372096Y-120948991D01*
X175371471Y-120936213D01*
X175370375Y-120935029D01*
X175366122Y-120934000D01*
X174169694Y-120933999D01*
X174157671Y-120938375D01*
X174154000Y-120944733D01*
X174153999Y-121672306D01*
X173646000Y-121672306D01*
X173646001Y-120949694D01*
X173641625Y-120937671D01*
X173635267Y-120934000D01*
X172439527Y-120933999D01*
X172427504Y-120938375D01*
X172426527Y-120940067D01*
X171242705Y-120940067D01*
X171242516Y-120936213D01*
X171241420Y-120935029D01*
X171237167Y-120934000D01*
X169989694Y-120933999D01*
X169977671Y-120938375D01*
X169974000Y-120944733D01*
X169973999Y-121590918D01*
X169953177Y-121648126D01*
X169925406Y-121670217D01*
X169917236Y-121674380D01*
X169912768Y-121678489D01*
X169912766Y-121678490D01*
X169864056Y-121723282D01*
X169811243Y-121771847D01*
X169808044Y-121777007D01*
X169808042Y-121777009D01*
X169738561Y-121889069D01*
X169738560Y-121889072D01*
X169735364Y-121894226D01*
X169733672Y-121900049D01*
X169733671Y-121900052D01*
X169717928Y-121954240D01*
X169695191Y-122032503D01*
X169693683Y-122176489D01*
X119321254Y-122176489D01*
X119309069Y-122156009D01*
X119957904Y-122156009D01*
X119958529Y-122168787D01*
X119959625Y-122169971D01*
X119963878Y-122171000D01*
X120860306Y-122171000D01*
X120872329Y-122166624D01*
X120876000Y-122160266D01*
X120876000Y-121432989D01*
X120874088Y-121427734D01*
X121384000Y-121427734D01*
X121384000Y-122155306D01*
X121388376Y-122167329D01*
X121394734Y-122171000D01*
X122290473Y-122171000D01*
X122302496Y-122166624D01*
X122303473Y-122164932D01*
X122303260Y-122161123D01*
X122270464Y-122049693D01*
X122267222Y-122041670D01*
X122179660Y-121874179D01*
X122174913Y-121866924D01*
X122056487Y-121719632D01*
X122050427Y-121713444D01*
X121905648Y-121591959D01*
X121898494Y-121587061D01*
X121732878Y-121496014D01*
X121724915Y-121492600D01*
X121544767Y-121435453D01*
X121536284Y-121433650D01*
X121396902Y-121418016D01*
X121387671Y-121421376D01*
X121384000Y-121427734D01*
X120874088Y-121427734D01*
X120871624Y-121420966D01*
X120866824Y-121418195D01*
X120737577Y-121430867D01*
X120729070Y-121432551D01*
X120548149Y-121487175D01*
X120540127Y-121490481D01*
X120373257Y-121579208D01*
X120366043Y-121584000D01*
X120219576Y-121703457D01*
X120213435Y-121709555D01*
X120092959Y-121855185D01*
X120088114Y-121862368D01*
X119998226Y-122028613D01*
X119994864Y-122036610D01*
X119957904Y-122156009D01*
X119309069Y-122156009D01*
X119242974Y-122044914D01*
X119238197Y-122038339D01*
X119103245Y-121884456D01*
X119097353Y-121878865D01*
X118936613Y-121752147D01*
X118929811Y-121747730D01*
X118748665Y-121652424D01*
X118741172Y-121649320D01*
X118545693Y-121588622D01*
X118537753Y-121586935D01*
X118371931Y-121567309D01*
X118369275Y-121567152D01*
X118357671Y-121571376D01*
X118354000Y-121577734D01*
X117844195Y-121577734D01*
X117841624Y-121570671D01*
X117836683Y-121567818D01*
X117692122Y-121581102D01*
X117684134Y-121582582D01*
X117487145Y-121638138D01*
X117479558Y-121641051D01*
X117295985Y-121731578D01*
X117289068Y-121735818D01*
X117125071Y-121858281D01*
X117119032Y-121863718D01*
X117035354Y-121954240D01*
X116981231Y-121982114D01*
X116921853Y-121968678D01*
X116885003Y-121920218D01*
X116881000Y-121893826D01*
X116881000Y-120940067D01*
X168195591Y-120940067D01*
X168195804Y-120943877D01*
X168231353Y-121064664D01*
X168234600Y-121072701D01*
X168324421Y-121244511D01*
X168329169Y-121251766D01*
X168450651Y-121402860D01*
X168456711Y-121409048D01*
X168605228Y-121533669D01*
X168612382Y-121538567D01*
X168782273Y-121631964D01*
X168790236Y-121635378D01*
X168975044Y-121694003D01*
X168983510Y-121695802D01*
X169134358Y-121712723D01*
X169139318Y-121713000D01*
X169450306Y-121713000D01*
X169462329Y-121708624D01*
X169466000Y-121702266D01*
X169466001Y-120949694D01*
X169461625Y-120937671D01*
X169455267Y-120934000D01*
X168208591Y-120933999D01*
X168196568Y-120938375D01*
X168195591Y-120940067D01*
X116881000Y-120940067D01*
X116881000Y-120411008D01*
X168196859Y-120411008D01*
X168197484Y-120423787D01*
X168198580Y-120424971D01*
X168202833Y-120426000D01*
X169450306Y-120426001D01*
X169462329Y-120421625D01*
X169466000Y-120415267D01*
X169466000Y-120410306D01*
X169973999Y-120410306D01*
X169978375Y-120422329D01*
X169984733Y-120426000D01*
X171231409Y-120426001D01*
X171243432Y-120421625D01*
X171244409Y-120419933D01*
X171244196Y-120416123D01*
X171242691Y-120411009D01*
X172427904Y-120411009D01*
X172428529Y-120423787D01*
X172429625Y-120424971D01*
X172433878Y-120426000D01*
X173630306Y-120426001D01*
X173642329Y-120421625D01*
X173646000Y-120415267D01*
X173646000Y-120410306D01*
X174153999Y-120410306D01*
X174158375Y-120422329D01*
X174164733Y-120426000D01*
X175360473Y-120426001D01*
X175372496Y-120421625D01*
X175373473Y-120419933D01*
X175373260Y-120416124D01*
X175340466Y-120304701D01*
X175337219Y-120296664D01*
X175249660Y-120129179D01*
X175244913Y-120121924D01*
X175126487Y-119974632D01*
X175120427Y-119968444D01*
X174975648Y-119846959D01*
X174968494Y-119842061D01*
X174802878Y-119751014D01*
X174794915Y-119747600D01*
X174614767Y-119690453D01*
X174606284Y-119688650D01*
X174460315Y-119672278D01*
X174455351Y-119672000D01*
X174169694Y-119672000D01*
X174157671Y-119676376D01*
X174154000Y-119682734D01*
X174153999Y-120410306D01*
X173646000Y-120410306D01*
X173646001Y-119687694D01*
X173641625Y-119675671D01*
X173635267Y-119672000D01*
X173351189Y-119672000D01*
X173346829Y-119672213D01*
X173207578Y-119685867D01*
X173199069Y-119687552D01*
X173018149Y-119742175D01*
X173010127Y-119745481D01*
X172843257Y-119834208D01*
X172836043Y-119839000D01*
X172689576Y-119958457D01*
X172683435Y-119964555D01*
X172562959Y-120110185D01*
X172558114Y-120117368D01*
X172468226Y-120283613D01*
X172464864Y-120291610D01*
X172427904Y-120411009D01*
X171242691Y-120411009D01*
X171208647Y-120295336D01*
X171205400Y-120287299D01*
X171115579Y-120115489D01*
X171110831Y-120108234D01*
X170989349Y-119957140D01*
X170983289Y-119950952D01*
X170834772Y-119826331D01*
X170827618Y-119821433D01*
X170657727Y-119728036D01*
X170649764Y-119724622D01*
X170464956Y-119665997D01*
X170456490Y-119664198D01*
X170305642Y-119647277D01*
X170300682Y-119647000D01*
X169989694Y-119647000D01*
X169977671Y-119651376D01*
X169974000Y-119657734D01*
X169973999Y-120410306D01*
X169466000Y-120410306D01*
X169466001Y-119662694D01*
X169461625Y-119650671D01*
X169455267Y-119647000D01*
X169146191Y-119647000D01*
X169141831Y-119647213D01*
X168997720Y-119661344D01*
X168989219Y-119663027D01*
X168803612Y-119719064D01*
X168795606Y-119722365D01*
X168624423Y-119813385D01*
X168617209Y-119818178D01*
X168466960Y-119940718D01*
X168460819Y-119946816D01*
X168337228Y-120096211D01*
X168332393Y-120103379D01*
X168240174Y-120273935D01*
X168236820Y-120281913D01*
X168196859Y-120411008D01*
X116881000Y-120411008D01*
X116881000Y-118105991D01*
X116901822Y-118048783D01*
X116954545Y-118018343D01*
X117014500Y-118028915D01*
X117036913Y-118047309D01*
X117096749Y-118115538D01*
X117102647Y-118121135D01*
X117263387Y-118247853D01*
X117270189Y-118252270D01*
X117451335Y-118347576D01*
X117458828Y-118350680D01*
X117654307Y-118411378D01*
X117662247Y-118413065D01*
X117828069Y-118432691D01*
X117830725Y-118432848D01*
X117842329Y-118428624D01*
X117846000Y-118422266D01*
X117846000Y-117539734D01*
X118354000Y-117539734D01*
X118354000Y-118417306D01*
X118358376Y-118429329D01*
X118363317Y-118432182D01*
X118507878Y-118418898D01*
X118515866Y-118417418D01*
X118712855Y-118361862D01*
X118720442Y-118358949D01*
X118904015Y-118268422D01*
X118910932Y-118264182D01*
X119074929Y-118141719D01*
X119080968Y-118136282D01*
X119219904Y-117985982D01*
X119224843Y-117979545D01*
X119316002Y-117835068D01*
X119956527Y-117835068D01*
X119956740Y-117838877D01*
X119989536Y-117950307D01*
X119992778Y-117958330D01*
X120080340Y-118125821D01*
X120085087Y-118133076D01*
X120203513Y-118280368D01*
X120209573Y-118286556D01*
X120354352Y-118408041D01*
X120361506Y-118412939D01*
X120527122Y-118503986D01*
X120535085Y-118507400D01*
X120715233Y-118564547D01*
X120723716Y-118566350D01*
X120863098Y-118581984D01*
X120872329Y-118578624D01*
X120876000Y-118572266D01*
X120876000Y-117844694D01*
X120874195Y-117839734D01*
X121384000Y-117839734D01*
X121384000Y-118567011D01*
X121388376Y-118579034D01*
X121393176Y-118581805D01*
X121522423Y-118569133D01*
X121530930Y-118567449D01*
X121711851Y-118512825D01*
X121719873Y-118509519D01*
X121886743Y-118420792D01*
X121893957Y-118416000D01*
X122040424Y-118296543D01*
X122046565Y-118290445D01*
X122167041Y-118144815D01*
X122171886Y-118137632D01*
X122261774Y-117971387D01*
X122265136Y-117963390D01*
X122302096Y-117843991D01*
X122301471Y-117831213D01*
X122300375Y-117830029D01*
X122296122Y-117829000D01*
X121399694Y-117829000D01*
X121387671Y-117833376D01*
X121384000Y-117839734D01*
X120874195Y-117839734D01*
X120871624Y-117832671D01*
X120865266Y-117829000D01*
X119969527Y-117829000D01*
X119957504Y-117833376D01*
X119956527Y-117835068D01*
X119316002Y-117835068D01*
X119334066Y-117806439D01*
X119337753Y-117799201D01*
X119413596Y-117609097D01*
X119415902Y-117601313D01*
X119427225Y-117544391D01*
X119425279Y-117531748D01*
X119422182Y-117529032D01*
X119422012Y-117529000D01*
X118369694Y-117529000D01*
X118357671Y-117533376D01*
X118354000Y-117539734D01*
X117846000Y-117539734D01*
X117846000Y-117306009D01*
X119957904Y-117306009D01*
X119958529Y-117318787D01*
X119959625Y-117319971D01*
X119963878Y-117321000D01*
X120860306Y-117321000D01*
X120872329Y-117316624D01*
X120876000Y-117310266D01*
X120876000Y-116582989D01*
X120874088Y-116577734D01*
X121384000Y-116577734D01*
X121384000Y-117305306D01*
X121388376Y-117317329D01*
X121394734Y-117321000D01*
X122290473Y-117321000D01*
X122302496Y-117316624D01*
X122303473Y-117314932D01*
X122303260Y-117311123D01*
X122270464Y-117199693D01*
X122267222Y-117191670D01*
X122179660Y-117024179D01*
X122174913Y-117016924D01*
X122056487Y-116869632D01*
X122050427Y-116863444D01*
X121905648Y-116741959D01*
X121898494Y-116737061D01*
X121732878Y-116646014D01*
X121724915Y-116642600D01*
X121544767Y-116585453D01*
X121536284Y-116583650D01*
X121396902Y-116568016D01*
X121387671Y-116571376D01*
X121384000Y-116577734D01*
X120874088Y-116577734D01*
X120871624Y-116570966D01*
X120866824Y-116568195D01*
X120737577Y-116580867D01*
X120729070Y-116582551D01*
X120548149Y-116637175D01*
X120540127Y-116640481D01*
X120373257Y-116729208D01*
X120366043Y-116734000D01*
X120219576Y-116853457D01*
X120213435Y-116859555D01*
X120092959Y-117005185D01*
X120088114Y-117012368D01*
X119998226Y-117178613D01*
X119994864Y-117186610D01*
X119957904Y-117306009D01*
X117846000Y-117306009D01*
X117846000Y-116132694D01*
X117844195Y-116127734D01*
X118354000Y-116127734D01*
X118354000Y-117005306D01*
X118358376Y-117017329D01*
X118364734Y-117021000D01*
X119415755Y-117021000D01*
X119427778Y-117016624D01*
X119430028Y-117012728D01*
X119424063Y-116978012D01*
X119421960Y-116970165D01*
X119351119Y-116778144D01*
X119347620Y-116770808D01*
X119242974Y-116594914D01*
X119238197Y-116588339D01*
X119103245Y-116434456D01*
X119097353Y-116428865D01*
X118936613Y-116302147D01*
X118929811Y-116297730D01*
X118748665Y-116202424D01*
X118741172Y-116199320D01*
X118545693Y-116138622D01*
X118537753Y-116136935D01*
X118371931Y-116117309D01*
X118369275Y-116117152D01*
X118357671Y-116121376D01*
X118354000Y-116127734D01*
X117844195Y-116127734D01*
X117841624Y-116120671D01*
X117836683Y-116117818D01*
X117692122Y-116131102D01*
X117684134Y-116132582D01*
X117487145Y-116188138D01*
X117479558Y-116191051D01*
X117295985Y-116281578D01*
X117289068Y-116285818D01*
X117125071Y-116408281D01*
X117119032Y-116413718D01*
X117035354Y-116504240D01*
X116981231Y-116532114D01*
X116921853Y-116518678D01*
X116885003Y-116470218D01*
X116881000Y-116443826D01*
X116881000Y-86964744D01*
X124145084Y-86964744D01*
X124184232Y-87095646D01*
X124260140Y-87209249D01*
X124366095Y-87295511D01*
X124492732Y-87346804D01*
X124601758Y-87356246D01*
X124657011Y-87381981D01*
X146750372Y-109475343D01*
X146752773Y-109478126D01*
X146754739Y-109482147D01*
X146760763Y-109487735D01*
X146787167Y-109512228D01*
X146789573Y-109514544D01*
X146806497Y-109531468D01*
X146809879Y-109533788D01*
X146813032Y-109536407D01*
X146812884Y-109536585D01*
X146816711Y-109539633D01*
X146836755Y-109558227D01*
X146848470Y-109562901D01*
X146865832Y-109572172D01*
X146876229Y-109579304D01*
X146884221Y-109581201D01*
X146884222Y-109581201D01*
X146902831Y-109585617D01*
X146915260Y-109589548D01*
X146926016Y-109593839D01*
X146940661Y-109599682D01*
X146949004Y-109600500D01*
X146955129Y-109600500D01*
X146975679Y-109602905D01*
X146985076Y-109605135D01*
X146993218Y-109604027D01*
X146993219Y-109604027D01*
X147013159Y-109601313D01*
X147025161Y-109600500D01*
X160254052Y-109600500D01*
X160311260Y-109621322D01*
X160341700Y-109674045D01*
X160331128Y-109734000D01*
X160327267Y-109740102D01*
X160287356Y-109797848D01*
X160285349Y-109804194D01*
X160265062Y-109868342D01*
X160246157Y-109928118D01*
X160245084Y-110064744D01*
X160284232Y-110195646D01*
X160360140Y-110309249D01*
X160466095Y-110395511D01*
X160592732Y-110446804D01*
X160631418Y-110450155D01*
X160701759Y-110456247D01*
X160757012Y-110481982D01*
X164800375Y-114525346D01*
X164802773Y-114528124D01*
X164804739Y-114532147D01*
X164810765Y-114537737D01*
X164837167Y-114562228D01*
X164839573Y-114564544D01*
X164856497Y-114581468D01*
X164859879Y-114583788D01*
X164863032Y-114586407D01*
X164862884Y-114586585D01*
X164866711Y-114589633D01*
X164886755Y-114608227D01*
X164898470Y-114612901D01*
X164915832Y-114622172D01*
X164926229Y-114629304D01*
X164934221Y-114631201D01*
X164934222Y-114631201D01*
X164952831Y-114635617D01*
X164965260Y-114639548D01*
X164976016Y-114643839D01*
X164990661Y-114649682D01*
X164999004Y-114650500D01*
X165005129Y-114650500D01*
X165025679Y-114652905D01*
X165035076Y-114655135D01*
X165043218Y-114654027D01*
X165043219Y-114654027D01*
X165063159Y-114651313D01*
X165075161Y-114650500D01*
X168955500Y-114650500D01*
X169012708Y-114671322D01*
X169043148Y-114724045D01*
X169044500Y-114739500D01*
X169044500Y-114849999D01*
X169060143Y-114928640D01*
X169104689Y-114995309D01*
X169171358Y-115039856D01*
X169250000Y-115055499D01*
X170000000Y-115055500D01*
X170749999Y-115055500D01*
X170798948Y-115045763D01*
X170820044Y-115041567D01*
X170820045Y-115041567D01*
X170828640Y-115039857D01*
X170895309Y-114995311D01*
X170939856Y-114928642D01*
X170955499Y-114850000D01*
X170955500Y-114350000D01*
X170952375Y-114334292D01*
X170950668Y-114316388D01*
X170950851Y-114286564D01*
X170950851Y-114286559D01*
X170950870Y-114283400D01*
X170942963Y-114225672D01*
X170904006Y-114089365D01*
X170902712Y-114086472D01*
X170881505Y-114039063D01*
X170881502Y-114039058D01*
X170880214Y-114036178D01*
X170863582Y-114009817D01*
X170806252Y-113918955D01*
X170806251Y-113918954D01*
X170804566Y-113916283D01*
X170766803Y-113871912D01*
X170764440Y-113869825D01*
X170764434Y-113869819D01*
X170662916Y-113780162D01*
X170660545Y-113778068D01*
X170642982Y-113766531D01*
X170614493Y-113747818D01*
X170611846Y-113746079D01*
X170483521Y-113685831D01*
X170480494Y-113684906D01*
X170480490Y-113684904D01*
X170430829Y-113669721D01*
X170430827Y-113669721D01*
X170427803Y-113668796D01*
X170287726Y-113646985D01*
X170284559Y-113646946D01*
X170284556Y-113646946D01*
X170279374Y-113646883D01*
X170269051Y-113646757D01*
X170258652Y-113645667D01*
X170258641Y-113645782D01*
X170254285Y-113645353D01*
X170250000Y-113644501D01*
X169999886Y-113644500D01*
X169750001Y-113644500D01*
X169744853Y-113645524D01*
X169744412Y-113645481D01*
X169741361Y-113645781D01*
X169741301Y-113645174D01*
X169730989Y-113644158D01*
X169731114Y-113647078D01*
X169723399Y-113647408D01*
X169723355Y-113647071D01*
X169703014Y-113649731D01*
X169592037Y-113664243D01*
X169592035Y-113664243D01*
X169588895Y-113664654D01*
X169585844Y-113665506D01*
X169585843Y-113665506D01*
X169560836Y-113672488D01*
X169532777Y-113680322D01*
X169403018Y-113737417D01*
X169400328Y-113739092D01*
X169400325Y-113739093D01*
X169356244Y-113766531D01*
X169356240Y-113766534D01*
X169353552Y-113768207D01*
X169245033Y-113859427D01*
X169242922Y-113861788D01*
X169242920Y-113861790D01*
X169231329Y-113874754D01*
X169206198Y-113902861D01*
X169204440Y-113905502D01*
X169135000Y-114009817D01*
X169085967Y-114045901D01*
X169060914Y-114049500D01*
X165211336Y-114049500D01*
X165154128Y-114028678D01*
X165148404Y-114023433D01*
X161185333Y-110060363D01*
X161159487Y-110003708D01*
X161159472Y-110003501D01*
X161159500Y-110000000D01*
X161139187Y-109864888D01*
X161126888Y-109839274D01*
X161082922Y-109747717D01*
X161080044Y-109741723D01*
X161077108Y-109738547D01*
X161062420Y-109680508D01*
X161088916Y-109625697D01*
X161144444Y-109600739D01*
X161150965Y-109600500D01*
X162238665Y-109600500D01*
X162295873Y-109621322D01*
X162301598Y-109626568D01*
X162819465Y-110144436D01*
X162845193Y-110199611D01*
X162845529Y-110208067D01*
X162845084Y-110264744D01*
X162846991Y-110271120D01*
X162846991Y-110271121D01*
X162850392Y-110282492D01*
X162884232Y-110395646D01*
X162960140Y-110509249D01*
X163066095Y-110595511D01*
X163192732Y-110646804D01*
X163250168Y-110651778D01*
X163322221Y-110658019D01*
X163322223Y-110658019D01*
X163328852Y-110658593D01*
X163335354Y-110657193D01*
X163335357Y-110657193D01*
X163455921Y-110631237D01*
X163455924Y-110631236D01*
X163462422Y-110629837D01*
X163468222Y-110626589D01*
X163468224Y-110626588D01*
X163575827Y-110566327D01*
X163575830Y-110566325D01*
X163581631Y-110563076D01*
X163675940Y-110464215D01*
X163735141Y-110345733D01*
X163779338Y-110303865D01*
X163840107Y-110300201D01*
X163877689Y-110322581D01*
X164730453Y-111175346D01*
X164732851Y-111178124D01*
X164734817Y-111182147D01*
X164740843Y-111187737D01*
X164767245Y-111212228D01*
X164769651Y-111214544D01*
X164786575Y-111231468D01*
X164789957Y-111233788D01*
X164793110Y-111236407D01*
X164792962Y-111236585D01*
X164796789Y-111239633D01*
X164806418Y-111248565D01*
X164816833Y-111258227D01*
X164828548Y-111262901D01*
X164845910Y-111272172D01*
X164856307Y-111279304D01*
X164864299Y-111281201D01*
X164864300Y-111281201D01*
X164882909Y-111285617D01*
X164895338Y-111289548D01*
X164906094Y-111293839D01*
X164920739Y-111299682D01*
X164929082Y-111300500D01*
X164935207Y-111300500D01*
X164955757Y-111302905D01*
X164965154Y-111305135D01*
X164973296Y-111304027D01*
X164973297Y-111304027D01*
X164993237Y-111301313D01*
X165005239Y-111300500D01*
X169978665Y-111300500D01*
X170035873Y-111321322D01*
X170041598Y-111326568D01*
X173528495Y-114813466D01*
X173554223Y-114868641D01*
X173543553Y-114919273D01*
X173529853Y-114944194D01*
X173528538Y-114948341D01*
X173528537Y-114948342D01*
X173468879Y-115136405D01*
X173468878Y-115136410D01*
X173467565Y-115140549D01*
X173467080Y-115144869D01*
X173467080Y-115144871D01*
X173465459Y-115159323D01*
X173444603Y-115345263D01*
X173461840Y-115550538D01*
X173518621Y-115748555D01*
X173612782Y-115931773D01*
X173740737Y-116093212D01*
X173794094Y-116138622D01*
X173865414Y-116199320D01*
X173897612Y-116226723D01*
X173901404Y-116228842D01*
X173901405Y-116228843D01*
X174073636Y-116325100D01*
X174073640Y-116325102D01*
X174077432Y-116327221D01*
X174081567Y-116328565D01*
X174081568Y-116328565D01*
X174269207Y-116389533D01*
X174269209Y-116389533D01*
X174273347Y-116390878D01*
X174477895Y-116415269D01*
X174482224Y-116414936D01*
X174482228Y-116414936D01*
X174678950Y-116399799D01*
X174678954Y-116399798D01*
X174683286Y-116399465D01*
X174687474Y-116398296D01*
X174687478Y-116398295D01*
X174804484Y-116365626D01*
X174881695Y-116344068D01*
X174885578Y-116342107D01*
X174885582Y-116342105D01*
X174974590Y-116297143D01*
X175065565Y-116251188D01*
X175153876Y-116182192D01*
X175224461Y-116127045D01*
X175224465Y-116127042D01*
X175227893Y-116124363D01*
X175231080Y-116120671D01*
X175359654Y-115971717D01*
X175359656Y-115971714D01*
X175362496Y-115968424D01*
X175464247Y-115789311D01*
X175479199Y-115744365D01*
X175527894Y-115597979D01*
X175529270Y-115593844D01*
X175555088Y-115389471D01*
X175555500Y-115360000D01*
X175535398Y-115154986D01*
X175475858Y-114957780D01*
X175473814Y-114953936D01*
X175473812Y-114953931D01*
X175381191Y-114779738D01*
X175379148Y-114775895D01*
X175248952Y-114616259D01*
X175183640Y-114562228D01*
X175093576Y-114487720D01*
X175093571Y-114487717D01*
X175090228Y-114484951D01*
X174909023Y-114386973D01*
X174886911Y-114380128D01*
X174775762Y-114345722D01*
X174712238Y-114326058D01*
X174609803Y-114315292D01*
X174511703Y-114304981D01*
X174511698Y-114304981D01*
X174507369Y-114304526D01*
X174302219Y-114323196D01*
X174104603Y-114381357D01*
X174100743Y-114383375D01*
X174058603Y-114405405D01*
X173998258Y-114413457D01*
X173954438Y-114389466D01*
X170389636Y-110824666D01*
X170387227Y-110821875D01*
X170385261Y-110817853D01*
X170352819Y-110787759D01*
X170350413Y-110785443D01*
X170333502Y-110768532D01*
X170330123Y-110766214D01*
X170326972Y-110763596D01*
X170327120Y-110763418D01*
X170323296Y-110760373D01*
X170309269Y-110747361D01*
X170303245Y-110741773D01*
X170291526Y-110737097D01*
X170274168Y-110727828D01*
X170263770Y-110720696D01*
X170237165Y-110714382D01*
X170224738Y-110710451D01*
X170205174Y-110702646D01*
X170205175Y-110702646D01*
X170199339Y-110700318D01*
X170190996Y-110699500D01*
X170184870Y-110699500D01*
X170164320Y-110697095D01*
X170164033Y-110697027D01*
X170154923Y-110694865D01*
X170146781Y-110695973D01*
X170146780Y-110695973D01*
X170126841Y-110698687D01*
X170114839Y-110699500D01*
X165141415Y-110699500D01*
X165084207Y-110678678D01*
X165078482Y-110673433D01*
X163363806Y-108958757D01*
X163338078Y-108903581D01*
X163353834Y-108844776D01*
X163383251Y-108818172D01*
X163481631Y-108763076D01*
X163515027Y-108728068D01*
X163569582Y-108701046D01*
X163579425Y-108700500D01*
X169918665Y-108700500D01*
X169975873Y-108721322D01*
X169981598Y-108726568D01*
X173528495Y-112273466D01*
X173554223Y-112328641D01*
X173543553Y-112379273D01*
X173529853Y-112404194D01*
X173528538Y-112408341D01*
X173528537Y-112408342D01*
X173468879Y-112596405D01*
X173468878Y-112596410D01*
X173467565Y-112600549D01*
X173467080Y-112604869D01*
X173467080Y-112604871D01*
X173465459Y-112619323D01*
X173444603Y-112805263D01*
X173461840Y-113010538D01*
X173518621Y-113208555D01*
X173612782Y-113391773D01*
X173740737Y-113553212D01*
X173780491Y-113587045D01*
X173875976Y-113668309D01*
X173897612Y-113686723D01*
X173901404Y-113688842D01*
X173901405Y-113688843D01*
X174073636Y-113785100D01*
X174073640Y-113785102D01*
X174077432Y-113787221D01*
X174081567Y-113788565D01*
X174081568Y-113788565D01*
X174269207Y-113849533D01*
X174269209Y-113849533D01*
X174273347Y-113850878D01*
X174477895Y-113875269D01*
X174482224Y-113874936D01*
X174482228Y-113874936D01*
X174678950Y-113859799D01*
X174678954Y-113859798D01*
X174683286Y-113859465D01*
X174687474Y-113858296D01*
X174687478Y-113858295D01*
X174804484Y-113825626D01*
X174881695Y-113804068D01*
X174885578Y-113802107D01*
X174885582Y-113802105D01*
X174996493Y-113746079D01*
X175065565Y-113711188D01*
X175153876Y-113642192D01*
X175224461Y-113587045D01*
X175224465Y-113587042D01*
X175227893Y-113584363D01*
X175362496Y-113428424D01*
X175464247Y-113249311D01*
X175479199Y-113204365D01*
X175527894Y-113057979D01*
X175529270Y-113053844D01*
X175555088Y-112849471D01*
X175555500Y-112820000D01*
X175535398Y-112614986D01*
X175475858Y-112417780D01*
X175473814Y-112413936D01*
X175473812Y-112413931D01*
X175381191Y-112239738D01*
X175379148Y-112235895D01*
X175248952Y-112076259D01*
X175194103Y-112030884D01*
X175093576Y-111947720D01*
X175093571Y-111947717D01*
X175090228Y-111944951D01*
X174909023Y-111846973D01*
X174897394Y-111843373D01*
X174844874Y-111827116D01*
X174712238Y-111786058D01*
X174609804Y-111775292D01*
X174511703Y-111764981D01*
X174511698Y-111764981D01*
X174507369Y-111764526D01*
X174302219Y-111783196D01*
X174104603Y-111841357D01*
X174089905Y-111849041D01*
X174058601Y-111865406D01*
X173998256Y-111873457D01*
X173954437Y-111849466D01*
X170329636Y-108224666D01*
X170327227Y-108221875D01*
X170325261Y-108217853D01*
X170292819Y-108187759D01*
X170290413Y-108185443D01*
X170273502Y-108168532D01*
X170270123Y-108166214D01*
X170266972Y-108163596D01*
X170267120Y-108163418D01*
X170263296Y-108160373D01*
X170249269Y-108147361D01*
X170243245Y-108141773D01*
X170231526Y-108137097D01*
X170214168Y-108127828D01*
X170203770Y-108120696D01*
X170177165Y-108114382D01*
X170164738Y-108110451D01*
X170145174Y-108102646D01*
X170145175Y-108102646D01*
X170139339Y-108100318D01*
X170130996Y-108099500D01*
X170124870Y-108099500D01*
X170104320Y-108097095D01*
X170104033Y-108097027D01*
X170094923Y-108094865D01*
X170086781Y-108095973D01*
X170086780Y-108095973D01*
X170066841Y-108098687D01*
X170054839Y-108099500D01*
X163579943Y-108099500D01*
X163522735Y-108078678D01*
X163514588Y-108070913D01*
X163506137Y-108061771D01*
X163487299Y-108041392D01*
X163369153Y-107972768D01*
X163236052Y-107941916D01*
X163122813Y-107949934D01*
X163106400Y-107951096D01*
X163099763Y-107951566D01*
X163093557Y-107953967D01*
X162978540Y-107998464D01*
X162978539Y-107998465D01*
X162972337Y-108000864D01*
X162967115Y-108004981D01*
X162967111Y-108004983D01*
X162870265Y-108081331D01*
X162865039Y-108085451D01*
X162787356Y-108197848D01*
X162785349Y-108204194D01*
X162782424Y-108210165D01*
X162779276Y-108208623D01*
X162750098Y-108246562D01*
X162690647Y-108259673D01*
X162639429Y-108234380D01*
X160869793Y-106464744D01*
X162491084Y-106464744D01*
X162530232Y-106595646D01*
X162606140Y-106709249D01*
X162712095Y-106795511D01*
X162718266Y-106798010D01*
X162718265Y-106798010D01*
X162832734Y-106844375D01*
X162877941Y-106885151D01*
X162886361Y-106945445D01*
X162865693Y-106984935D01*
X162865039Y-106985451D01*
X162861257Y-106990922D01*
X162861255Y-106990925D01*
X162795930Y-107085443D01*
X162787356Y-107097848D01*
X162785349Y-107104194D01*
X162778875Y-107124666D01*
X162746157Y-107228118D01*
X162745084Y-107364744D01*
X162784232Y-107495646D01*
X162860140Y-107609249D01*
X162966095Y-107695511D01*
X163092732Y-107746804D01*
X163150168Y-107751778D01*
X163222221Y-107758019D01*
X163222223Y-107758019D01*
X163228852Y-107758593D01*
X163235354Y-107757193D01*
X163235357Y-107757193D01*
X163355921Y-107731237D01*
X163355924Y-107731236D01*
X163362422Y-107729837D01*
X163368222Y-107726589D01*
X163368224Y-107726588D01*
X163475830Y-107666325D01*
X163475831Y-107666324D01*
X163481631Y-107663076D01*
X163515027Y-107628068D01*
X163569582Y-107601046D01*
X163579425Y-107600500D01*
X171358665Y-107600500D01*
X171415873Y-107621322D01*
X171421598Y-107626568D01*
X173528495Y-109733466D01*
X173554223Y-109788641D01*
X173543553Y-109839274D01*
X173532767Y-109858894D01*
X173529853Y-109864194D01*
X173528538Y-109868341D01*
X173528537Y-109868342D01*
X173468879Y-110056405D01*
X173468878Y-110056410D01*
X173467565Y-110060549D01*
X173467080Y-110064869D01*
X173467080Y-110064871D01*
X173451434Y-110204358D01*
X173444603Y-110265263D01*
X173446050Y-110282492D01*
X173456016Y-110401175D01*
X173461840Y-110470538D01*
X173518621Y-110668555D01*
X173612782Y-110851773D01*
X173740737Y-111013212D01*
X173897612Y-111146723D01*
X173901404Y-111148842D01*
X173901405Y-111148843D01*
X174073636Y-111245100D01*
X174073640Y-111245102D01*
X174077432Y-111247221D01*
X174081567Y-111248565D01*
X174081568Y-111248565D01*
X174269207Y-111309533D01*
X174269209Y-111309533D01*
X174273347Y-111310878D01*
X174477895Y-111335269D01*
X174482224Y-111334936D01*
X174482228Y-111334936D01*
X174678950Y-111319799D01*
X174678954Y-111319798D01*
X174683286Y-111319465D01*
X174687474Y-111318296D01*
X174687478Y-111318295D01*
X174843766Y-111274658D01*
X174881695Y-111264068D01*
X174885578Y-111262107D01*
X174885582Y-111262105D01*
X174979735Y-111214544D01*
X175065565Y-111171188D01*
X175153876Y-111102192D01*
X175224461Y-111047045D01*
X175224465Y-111047042D01*
X175227893Y-111044363D01*
X175362496Y-110888424D01*
X175464247Y-110709311D01*
X175466465Y-110702646D01*
X175527894Y-110517979D01*
X175529270Y-110513844D01*
X175555088Y-110309471D01*
X175555167Y-110303865D01*
X175555465Y-110282492D01*
X175555500Y-110280000D01*
X175535398Y-110074986D01*
X175475858Y-109877780D01*
X175473814Y-109873936D01*
X175473812Y-109873931D01*
X175402653Y-109740102D01*
X175379148Y-109695895D01*
X175248952Y-109536259D01*
X175175317Y-109475343D01*
X175093576Y-109407720D01*
X175093571Y-109407717D01*
X175090228Y-109404951D01*
X174909023Y-109306973D01*
X174897394Y-109303373D01*
X174844874Y-109287116D01*
X174712238Y-109246058D01*
X174609804Y-109235292D01*
X174511703Y-109224981D01*
X174511698Y-109224981D01*
X174507369Y-109224526D01*
X174302219Y-109243196D01*
X174104603Y-109301357D01*
X174089905Y-109309041D01*
X174058601Y-109325406D01*
X173998256Y-109333457D01*
X173954437Y-109309466D01*
X171769636Y-107124666D01*
X171767227Y-107121875D01*
X171765261Y-107117853D01*
X171732819Y-107087759D01*
X171730413Y-107085443D01*
X171713502Y-107068532D01*
X171710123Y-107066214D01*
X171706972Y-107063596D01*
X171707120Y-107063418D01*
X171703296Y-107060373D01*
X171689269Y-107047361D01*
X171683245Y-107041773D01*
X171671526Y-107037097D01*
X171654168Y-107027828D01*
X171643770Y-107020696D01*
X171617165Y-107014382D01*
X171604738Y-107010451D01*
X171585174Y-107002646D01*
X171585175Y-107002646D01*
X171579339Y-107000318D01*
X171570996Y-106999500D01*
X171564870Y-106999500D01*
X171544320Y-106997095D01*
X171544033Y-106997027D01*
X171534923Y-106994865D01*
X171526781Y-106995973D01*
X171526780Y-106995973D01*
X171506841Y-106998687D01*
X171494839Y-106999500D01*
X163579943Y-106999500D01*
X163522735Y-106978678D01*
X163514588Y-106970913D01*
X163506137Y-106961771D01*
X163487299Y-106941392D01*
X163369153Y-106872768D01*
X163364536Y-106871698D01*
X163319633Y-106831832D01*
X163310738Y-106771606D01*
X163342638Y-106719752D01*
X163397921Y-106700500D01*
X172998665Y-106700500D01*
X173055873Y-106721322D01*
X173061598Y-106726568D01*
X173528495Y-107193466D01*
X173554223Y-107248641D01*
X173543553Y-107299273D01*
X173529853Y-107324194D01*
X173528538Y-107328341D01*
X173528537Y-107328342D01*
X173468879Y-107516405D01*
X173468878Y-107516410D01*
X173467565Y-107520549D01*
X173467080Y-107524869D01*
X173467080Y-107524871D01*
X173465459Y-107539323D01*
X173444603Y-107725263D01*
X173461840Y-107930538D01*
X173518621Y-108128555D01*
X173612782Y-108311773D01*
X173740737Y-108473212D01*
X173897612Y-108606723D01*
X173901404Y-108608842D01*
X173901405Y-108608843D01*
X174073636Y-108705100D01*
X174073640Y-108705102D01*
X174077432Y-108707221D01*
X174081567Y-108708565D01*
X174081568Y-108708565D01*
X174269207Y-108769533D01*
X174269209Y-108769533D01*
X174273347Y-108770878D01*
X174477895Y-108795269D01*
X174482224Y-108794936D01*
X174482228Y-108794936D01*
X174678950Y-108779799D01*
X174678954Y-108779798D01*
X174683286Y-108779465D01*
X174687474Y-108778296D01*
X174687478Y-108778295D01*
X174804484Y-108745626D01*
X174881695Y-108724068D01*
X174885578Y-108722107D01*
X174885582Y-108722105D01*
X174974590Y-108677143D01*
X175065565Y-108631188D01*
X175153876Y-108562192D01*
X175224461Y-108507045D01*
X175224465Y-108507042D01*
X175227893Y-108504363D01*
X175362496Y-108348424D01*
X175464247Y-108169311D01*
X175466149Y-108163596D01*
X175518911Y-108004983D01*
X175529270Y-107973844D01*
X175555088Y-107769471D01*
X175555500Y-107740000D01*
X175554504Y-107729837D01*
X175543091Y-107613447D01*
X175535398Y-107534986D01*
X175475858Y-107337780D01*
X175473814Y-107333936D01*
X175473812Y-107333931D01*
X175381191Y-107159738D01*
X175379148Y-107155895D01*
X175248952Y-106996259D01*
X175188535Y-106946278D01*
X175093576Y-106867720D01*
X175093571Y-106867717D01*
X175090228Y-106864951D01*
X174909023Y-106766973D01*
X174897394Y-106763373D01*
X174756476Y-106719752D01*
X174712238Y-106706058D01*
X174609803Y-106695292D01*
X174511703Y-106684981D01*
X174511698Y-106684981D01*
X174507369Y-106684526D01*
X174302219Y-106703196D01*
X174104603Y-106761357D01*
X174089905Y-106769041D01*
X174058601Y-106785406D01*
X173998256Y-106793457D01*
X173954437Y-106769466D01*
X173409636Y-106224666D01*
X173407227Y-106221875D01*
X173405261Y-106217853D01*
X173372819Y-106187759D01*
X173370413Y-106185443D01*
X173353502Y-106168532D01*
X173350123Y-106166214D01*
X173346972Y-106163596D01*
X173347120Y-106163418D01*
X173343296Y-106160373D01*
X173329269Y-106147361D01*
X173323245Y-106141773D01*
X173311526Y-106137097D01*
X173294168Y-106127828D01*
X173283770Y-106120696D01*
X173257165Y-106114382D01*
X173244738Y-106110451D01*
X173225174Y-106102646D01*
X173225175Y-106102646D01*
X173219339Y-106100318D01*
X173210996Y-106099500D01*
X173204870Y-106099500D01*
X173184320Y-106097095D01*
X173184033Y-106097027D01*
X173174923Y-106094865D01*
X173166781Y-106095973D01*
X173166780Y-106095973D01*
X173146841Y-106098687D01*
X173134839Y-106099500D01*
X163325943Y-106099500D01*
X163268735Y-106078678D01*
X163260588Y-106070913D01*
X163252137Y-106061771D01*
X163233299Y-106041392D01*
X163174377Y-106007167D01*
X163135366Y-105960429D01*
X163135525Y-105899550D01*
X163174779Y-105853016D01*
X163200347Y-105843201D01*
X163255921Y-105831237D01*
X163255924Y-105831236D01*
X163262422Y-105829837D01*
X163268222Y-105826589D01*
X163268224Y-105826588D01*
X163375827Y-105766327D01*
X163375830Y-105766325D01*
X163381631Y-105763076D01*
X163475940Y-105664215D01*
X163507439Y-105601175D01*
X163533150Y-105549719D01*
X163577347Y-105507851D01*
X163612765Y-105500500D01*
X173426305Y-105500500D01*
X173483513Y-105521322D01*
X173511857Y-105564965D01*
X173518621Y-105588555D01*
X173612782Y-105771773D01*
X173628268Y-105791311D01*
X173731712Y-105921825D01*
X173740737Y-105933212D01*
X173897612Y-106066723D01*
X173901404Y-106068842D01*
X173901405Y-106068843D01*
X174073636Y-106165100D01*
X174073640Y-106165102D01*
X174077432Y-106167221D01*
X174081567Y-106168565D01*
X174081568Y-106168565D01*
X174269207Y-106229533D01*
X174269209Y-106229533D01*
X174273347Y-106230878D01*
X174477895Y-106255269D01*
X174482224Y-106254936D01*
X174482228Y-106254936D01*
X174678950Y-106239799D01*
X174678954Y-106239798D01*
X174683286Y-106239465D01*
X174687474Y-106238296D01*
X174687478Y-106238295D01*
X174809612Y-106204194D01*
X174881695Y-106184068D01*
X174885578Y-106182107D01*
X174885582Y-106182105D01*
X174974673Y-106137101D01*
X175065565Y-106091188D01*
X175171987Y-106008042D01*
X175224461Y-105967045D01*
X175224465Y-105967042D01*
X175227893Y-105964363D01*
X175231289Y-105960429D01*
X175359654Y-105811717D01*
X175359656Y-105811714D01*
X175362496Y-105808424D01*
X175464247Y-105629311D01*
X175529270Y-105433844D01*
X175555088Y-105229471D01*
X175555500Y-105200000D01*
X175535398Y-104994986D01*
X175477651Y-104803720D01*
X175477118Y-104801953D01*
X175477118Y-104801952D01*
X175475858Y-104797780D01*
X175473814Y-104793936D01*
X175473812Y-104793931D01*
X175381191Y-104619738D01*
X175379148Y-104615895D01*
X175248952Y-104456259D01*
X175194103Y-104410884D01*
X175093576Y-104327720D01*
X175093571Y-104327717D01*
X175090228Y-104324951D01*
X174909023Y-104226973D01*
X174886911Y-104220128D01*
X174792570Y-104190925D01*
X174712238Y-104166058D01*
X174609804Y-104155292D01*
X174511703Y-104144981D01*
X174511698Y-104144981D01*
X174507369Y-104144526D01*
X174302219Y-104163196D01*
X174104603Y-104221357D01*
X174093861Y-104226973D01*
X173925908Y-104314776D01*
X173925904Y-104314779D01*
X173922047Y-104316795D01*
X173761505Y-104445874D01*
X173629093Y-104603677D01*
X173529853Y-104784194D01*
X173524134Y-104802223D01*
X173512971Y-104837412D01*
X173475825Y-104885646D01*
X173428137Y-104899500D01*
X165540336Y-104899500D01*
X165483128Y-104878678D01*
X165452688Y-104825955D01*
X165463260Y-104766000D01*
X165477403Y-104747567D01*
X165480756Y-104744214D01*
X165496989Y-104731384D01*
X165498216Y-104730628D01*
X165498217Y-104730627D01*
X165505211Y-104726316D01*
X165522372Y-104703748D01*
X165530284Y-104694686D01*
X167238404Y-102986567D01*
X167293579Y-102960839D01*
X167301336Y-102960500D01*
X173426305Y-102960500D01*
X173483513Y-102981322D01*
X173511857Y-103024965D01*
X173518621Y-103048555D01*
X173612782Y-103231773D01*
X173615488Y-103235187D01*
X173712189Y-103357193D01*
X173740737Y-103393212D01*
X173897612Y-103526723D01*
X173901404Y-103528842D01*
X173901405Y-103528843D01*
X174073636Y-103625100D01*
X174073640Y-103625102D01*
X174077432Y-103627221D01*
X174081567Y-103628565D01*
X174081568Y-103628565D01*
X174269207Y-103689533D01*
X174269209Y-103689533D01*
X174273347Y-103690878D01*
X174477895Y-103715269D01*
X174482224Y-103714936D01*
X174482228Y-103714936D01*
X174678950Y-103699799D01*
X174678954Y-103699798D01*
X174683286Y-103699465D01*
X174687474Y-103698296D01*
X174687478Y-103698295D01*
X174804484Y-103665626D01*
X174881695Y-103644068D01*
X174885578Y-103642107D01*
X174885582Y-103642105D01*
X174974590Y-103597143D01*
X175065565Y-103551188D01*
X175153876Y-103482192D01*
X175224461Y-103427045D01*
X175224465Y-103427042D01*
X175227893Y-103424363D01*
X175294345Y-103347378D01*
X175359654Y-103271717D01*
X175359656Y-103271714D01*
X175362496Y-103268424D01*
X175464247Y-103089311D01*
X175472667Y-103064001D01*
X175506984Y-102960839D01*
X175529270Y-102893844D01*
X175555088Y-102689471D01*
X175555500Y-102660000D01*
X175535398Y-102454986D01*
X175475858Y-102257780D01*
X175473814Y-102253936D01*
X175473812Y-102253931D01*
X175407829Y-102129837D01*
X175379148Y-102075895D01*
X175248952Y-101916259D01*
X175113489Y-101804194D01*
X175093576Y-101787720D01*
X175093571Y-101787717D01*
X175090228Y-101784951D01*
X174909023Y-101686973D01*
X174904107Y-101685451D01*
X174844874Y-101667116D01*
X174712238Y-101626058D01*
X174609804Y-101615292D01*
X174511703Y-101604981D01*
X174511698Y-101604981D01*
X174507369Y-101604526D01*
X174302219Y-101623196D01*
X174104603Y-101681357D01*
X174093861Y-101686973D01*
X173925908Y-101774776D01*
X173925904Y-101774779D01*
X173922047Y-101776795D01*
X173761505Y-101905874D01*
X173629093Y-102063677D01*
X173529853Y-102244194D01*
X173514315Y-102293174D01*
X173512971Y-102297412D01*
X173475825Y-102345646D01*
X173428137Y-102359500D01*
X167192530Y-102359500D01*
X167188861Y-102359230D01*
X167184628Y-102357777D01*
X167176418Y-102358085D01*
X167176416Y-102358085D01*
X167140423Y-102359437D01*
X167137083Y-102359500D01*
X167113154Y-102359500D01*
X167109124Y-102360251D01*
X167105038Y-102360628D01*
X167105020Y-102360435D01*
X167100155Y-102360949D01*
X167089540Y-102361348D01*
X167072837Y-102361975D01*
X167065289Y-102365218D01*
X167065288Y-102365218D01*
X167061252Y-102366952D01*
X167042420Y-102372673D01*
X167038102Y-102373477D01*
X167038097Y-102373479D01*
X167030021Y-102374983D01*
X167006744Y-102389331D01*
X166995178Y-102395339D01*
X166970051Y-102406134D01*
X166963574Y-102411455D01*
X166959243Y-102415786D01*
X166943010Y-102428616D01*
X166941786Y-102429370D01*
X166941783Y-102429373D01*
X166934789Y-102433684D01*
X166929815Y-102440225D01*
X166929814Y-102440226D01*
X166917631Y-102456248D01*
X166909720Y-102465309D01*
X166045193Y-103329837D01*
X165201598Y-104173432D01*
X165146422Y-104199161D01*
X165138665Y-104199500D01*
X163479943Y-104199500D01*
X163422735Y-104178678D01*
X163414588Y-104170913D01*
X163406137Y-104161771D01*
X163387299Y-104141392D01*
X163269153Y-104072768D01*
X163136052Y-104041916D01*
X163022813Y-104049934D01*
X163006400Y-104051096D01*
X162999763Y-104051566D01*
X162993557Y-104053967D01*
X162878540Y-104098464D01*
X162878539Y-104098465D01*
X162872337Y-104100864D01*
X162867115Y-104104981D01*
X162867111Y-104104983D01*
X162770265Y-104181331D01*
X162765039Y-104185451D01*
X162687356Y-104297848D01*
X162646157Y-104428118D01*
X162645084Y-104564744D01*
X162684232Y-104695646D01*
X162760140Y-104809249D01*
X162819912Y-104857911D01*
X162848761Y-104881399D01*
X162879979Y-104933665D01*
X162870298Y-104993770D01*
X162847670Y-105020310D01*
X162765039Y-105085451D01*
X162687356Y-105197848D01*
X162646157Y-105328118D01*
X162646105Y-105334771D01*
X162645361Y-105429520D01*
X162645084Y-105464744D01*
X162684232Y-105595646D01*
X162760140Y-105709249D01*
X162861318Y-105791622D01*
X162861319Y-105791623D01*
X162866095Y-105795511D01*
X162865307Y-105796478D01*
X162899825Y-105838501D01*
X162899187Y-105899377D01*
X162859569Y-105945601D01*
X162845539Y-105950987D01*
X162845763Y-105951566D01*
X162724540Y-105998464D01*
X162724539Y-105998465D01*
X162718337Y-106000864D01*
X162713115Y-106004981D01*
X162713111Y-106004983D01*
X162616265Y-106081331D01*
X162611039Y-106085451D01*
X162533356Y-106197848D01*
X162531349Y-106204194D01*
X162524875Y-106224666D01*
X162492157Y-106328118D01*
X162491084Y-106464744D01*
X160869793Y-106464744D01*
X160126568Y-105721520D01*
X160100839Y-105666344D01*
X160100500Y-105658587D01*
X160100500Y-103089502D01*
X160121322Y-103032294D01*
X160174045Y-103001854D01*
X160234000Y-103012426D01*
X160274768Y-103064001D01*
X160284232Y-103095646D01*
X160360140Y-103209249D01*
X160466095Y-103295511D01*
X160592732Y-103346804D01*
X160650168Y-103351778D01*
X160722221Y-103358019D01*
X160722223Y-103358019D01*
X160728852Y-103358593D01*
X160735354Y-103357193D01*
X160735357Y-103357193D01*
X160855921Y-103331237D01*
X160855924Y-103331236D01*
X160862422Y-103329837D01*
X160868222Y-103326589D01*
X160868224Y-103326588D01*
X160975827Y-103266327D01*
X160975830Y-103266325D01*
X160981631Y-103263076D01*
X161075940Y-103164215D01*
X161137010Y-103041993D01*
X161138103Y-103035428D01*
X161158869Y-102910669D01*
X161158869Y-102910664D01*
X161159443Y-102907218D01*
X161159487Y-102901648D01*
X161159699Y-102901079D01*
X161159772Y-102900240D01*
X161160005Y-102900260D01*
X161180760Y-102844606D01*
X161185552Y-102839418D01*
X161960226Y-102064744D01*
X163445084Y-102064744D01*
X163484232Y-102195646D01*
X163560140Y-102309249D01*
X163604846Y-102345646D01*
X163648761Y-102381399D01*
X163679979Y-102433665D01*
X163670298Y-102493770D01*
X163647670Y-102520310D01*
X163565039Y-102585451D01*
X163487356Y-102697848D01*
X163485349Y-102704194D01*
X163454942Y-102800341D01*
X163446157Y-102828118D01*
X163446105Y-102834771D01*
X163445580Y-102901648D01*
X163445084Y-102964744D01*
X163484232Y-103095646D01*
X163560140Y-103209249D01*
X163666095Y-103295511D01*
X163792732Y-103346804D01*
X163850168Y-103351778D01*
X163922221Y-103358019D01*
X163922223Y-103358019D01*
X163928852Y-103358593D01*
X163935354Y-103357193D01*
X163935357Y-103357193D01*
X164055921Y-103331237D01*
X164055924Y-103331236D01*
X164062422Y-103329837D01*
X164068222Y-103326589D01*
X164068224Y-103326588D01*
X164175827Y-103266327D01*
X164175830Y-103266325D01*
X164181631Y-103263076D01*
X164275940Y-103164215D01*
X164337010Y-103041993D01*
X164338103Y-103035428D01*
X164358869Y-102910669D01*
X164358869Y-102910664D01*
X164359443Y-102907218D01*
X164359487Y-102901648D01*
X164359699Y-102901079D01*
X164359772Y-102900240D01*
X164360005Y-102900260D01*
X164380760Y-102844606D01*
X164385552Y-102839418D01*
X166431468Y-100793503D01*
X166431470Y-100793500D01*
X166778404Y-100446567D01*
X166833579Y-100420839D01*
X166841336Y-100420500D01*
X173426305Y-100420500D01*
X173483513Y-100441322D01*
X173511857Y-100484965D01*
X173518621Y-100508555D01*
X173612782Y-100691773D01*
X173740737Y-100853212D01*
X173897612Y-100986723D01*
X173901404Y-100988842D01*
X173901405Y-100988843D01*
X174073636Y-101085100D01*
X174073640Y-101085102D01*
X174077432Y-101087221D01*
X174081567Y-101088565D01*
X174081568Y-101088565D01*
X174269207Y-101149533D01*
X174269209Y-101149533D01*
X174273347Y-101150878D01*
X174477895Y-101175269D01*
X174482224Y-101174936D01*
X174482228Y-101174936D01*
X174678950Y-101159799D01*
X174678954Y-101159798D01*
X174683286Y-101159465D01*
X174687474Y-101158296D01*
X174687478Y-101158295D01*
X174804484Y-101125626D01*
X174881695Y-101104068D01*
X174885578Y-101102107D01*
X174885582Y-101102105D01*
X174974590Y-101057143D01*
X175065565Y-101011188D01*
X175153876Y-100942192D01*
X175224461Y-100887045D01*
X175224465Y-100887042D01*
X175227893Y-100884363D01*
X175230740Y-100881065D01*
X175359654Y-100731717D01*
X175359656Y-100731714D01*
X175362496Y-100728424D01*
X175464247Y-100549311D01*
X175484920Y-100487167D01*
X175506984Y-100420839D01*
X175529270Y-100353844D01*
X175555088Y-100149471D01*
X175555500Y-100120000D01*
X175535398Y-99914986D01*
X175475858Y-99717780D01*
X175473814Y-99713936D01*
X175473812Y-99713931D01*
X175381191Y-99539738D01*
X175379148Y-99535895D01*
X175248952Y-99376259D01*
X175194103Y-99330884D01*
X175093576Y-99247720D01*
X175093571Y-99247717D01*
X175090228Y-99244951D01*
X174909023Y-99146973D01*
X174886911Y-99140128D01*
X174836327Y-99124470D01*
X174712238Y-99086058D01*
X174609804Y-99075292D01*
X174511703Y-99064981D01*
X174511698Y-99064981D01*
X174507369Y-99064526D01*
X174302219Y-99083196D01*
X174104603Y-99141357D01*
X174093861Y-99146973D01*
X173925908Y-99234776D01*
X173925904Y-99234779D01*
X173922047Y-99236795D01*
X173761505Y-99365874D01*
X173629093Y-99523677D01*
X173529853Y-99704194D01*
X173521217Y-99731417D01*
X173512971Y-99757412D01*
X173475825Y-99805646D01*
X173428137Y-99819500D01*
X166732531Y-99819500D01*
X166728861Y-99819230D01*
X166724628Y-99817777D01*
X166716417Y-99818085D01*
X166708905Y-99816976D01*
X166655352Y-99788021D01*
X166632940Y-99731417D01*
X166652156Y-99673650D01*
X166658967Y-99666003D01*
X168418405Y-97906566D01*
X168473579Y-97880839D01*
X168481336Y-97880500D01*
X173426305Y-97880500D01*
X173483513Y-97901322D01*
X173511857Y-97944965D01*
X173518621Y-97968555D01*
X173612782Y-98151773D01*
X173740737Y-98313212D01*
X173897612Y-98446723D01*
X173901404Y-98448842D01*
X173901405Y-98448843D01*
X174073636Y-98545100D01*
X174073640Y-98545102D01*
X174077432Y-98547221D01*
X174081567Y-98548565D01*
X174081568Y-98548565D01*
X174269207Y-98609533D01*
X174269209Y-98609533D01*
X174273347Y-98610878D01*
X174477895Y-98635269D01*
X174482224Y-98634936D01*
X174482228Y-98634936D01*
X174678950Y-98619799D01*
X174678954Y-98619798D01*
X174683286Y-98619465D01*
X174687474Y-98618296D01*
X174687478Y-98618295D01*
X174804484Y-98585626D01*
X174881695Y-98564068D01*
X174885578Y-98562107D01*
X174885582Y-98562105D01*
X174974590Y-98517143D01*
X175065565Y-98471188D01*
X175153876Y-98402192D01*
X175224461Y-98347045D01*
X175224465Y-98347042D01*
X175227893Y-98344363D01*
X175362496Y-98188424D01*
X175464247Y-98009311D01*
X175529270Y-97813844D01*
X175555088Y-97609471D01*
X175555500Y-97580000D01*
X175535398Y-97374986D01*
X175475858Y-97177780D01*
X175473814Y-97173936D01*
X175473812Y-97173931D01*
X175381191Y-96999738D01*
X175379148Y-96995895D01*
X175248952Y-96836259D01*
X175194103Y-96790884D01*
X175093576Y-96707720D01*
X175093571Y-96707717D01*
X175090228Y-96704951D01*
X174909023Y-96606973D01*
X174886911Y-96600128D01*
X174838642Y-96585187D01*
X174731953Y-96552161D01*
X174683461Y-96515353D01*
X174669973Y-96455986D01*
X174697801Y-96401839D01*
X174748271Y-96378705D01*
X174763319Y-96377004D01*
X174770697Y-96375529D01*
X174984845Y-96313516D01*
X174991839Y-96310831D01*
X175192483Y-96213620D01*
X175198933Y-96209790D01*
X175380319Y-96080170D01*
X175386044Y-96075296D01*
X175542990Y-95916975D01*
X175547810Y-95911211D01*
X175675842Y-95728702D01*
X175679621Y-95722208D01*
X175775071Y-95520738D01*
X175777701Y-95513704D01*
X175836198Y-95304896D01*
X175834272Y-95297198D01*
X175829861Y-95294000D01*
X173180982Y-95294000D01*
X173168959Y-95298376D01*
X173166640Y-95302393D01*
X173176889Y-95366026D01*
X173178703Y-95373301D01*
X173250735Y-95584291D01*
X173253752Y-95591163D01*
X173360301Y-95786994D01*
X173364437Y-95793267D01*
X173502457Y-95968344D01*
X173507585Y-95973824D01*
X173673131Y-96123145D01*
X173679115Y-96127687D01*
X173867457Y-96246982D01*
X173874111Y-96250445D01*
X174079864Y-96336303D01*
X174087008Y-96338596D01*
X174266878Y-96379957D01*
X174317965Y-96413069D01*
X174335815Y-96471273D01*
X174312076Y-96527334D01*
X174272061Y-96552072D01*
X174104603Y-96601357D01*
X174093861Y-96606973D01*
X173925908Y-96694776D01*
X173925904Y-96694779D01*
X173922047Y-96696795D01*
X173761505Y-96825874D01*
X173629093Y-96983677D01*
X173529853Y-97164194D01*
X173512971Y-97217412D01*
X173475825Y-97265646D01*
X173428137Y-97279500D01*
X168372530Y-97279500D01*
X168368861Y-97279230D01*
X168364628Y-97277777D01*
X168356418Y-97278085D01*
X168356416Y-97278085D01*
X168320423Y-97279437D01*
X168317083Y-97279500D01*
X168293154Y-97279500D01*
X168289124Y-97280251D01*
X168285038Y-97280628D01*
X168285020Y-97280435D01*
X168280155Y-97280949D01*
X168269540Y-97281348D01*
X168252837Y-97281975D01*
X168245289Y-97285218D01*
X168245288Y-97285218D01*
X168241252Y-97286952D01*
X168222420Y-97292673D01*
X168218102Y-97293477D01*
X168218097Y-97293479D01*
X168210021Y-97294983D01*
X168186744Y-97309331D01*
X168175178Y-97315339D01*
X168150051Y-97326134D01*
X168143574Y-97331455D01*
X168139243Y-97335786D01*
X168123010Y-97348616D01*
X168121786Y-97349370D01*
X168121783Y-97349373D01*
X168114789Y-97353684D01*
X168109815Y-97360225D01*
X168109814Y-97360226D01*
X168097631Y-97376248D01*
X168089720Y-97385309D01*
X163956389Y-101518641D01*
X163899742Y-101544487D01*
X163806400Y-101551096D01*
X163799763Y-101551566D01*
X163793557Y-101553967D01*
X163678540Y-101598464D01*
X163678539Y-101598465D01*
X163672337Y-101600864D01*
X163667115Y-101604981D01*
X163667111Y-101604983D01*
X163637765Y-101628118D01*
X163565039Y-101685451D01*
X163487356Y-101797848D01*
X163485349Y-101804194D01*
X163448842Y-101919629D01*
X163446157Y-101928118D01*
X163445084Y-102064744D01*
X161960226Y-102064744D01*
X169254410Y-94770560D01*
X173168577Y-94770560D01*
X173170743Y-94783164D01*
X173174093Y-94786000D01*
X175821500Y-94786000D01*
X175833523Y-94781624D01*
X175834890Y-94779257D01*
X175834790Y-94776737D01*
X175786559Y-94590914D01*
X175784063Y-94583825D01*
X175692498Y-94380557D01*
X175688850Y-94374003D01*
X175564341Y-94189063D01*
X175559638Y-94183213D01*
X175405754Y-94021902D01*
X175400123Y-94016920D01*
X175221268Y-93883848D01*
X175214881Y-93879888D01*
X175016152Y-93778848D01*
X175009197Y-93776024D01*
X174859353Y-93729497D01*
X174810893Y-93692647D01*
X174797457Y-93633269D01*
X174825331Y-93579146D01*
X174885745Y-93555500D01*
X175350000Y-93555500D01*
X175428641Y-93539857D01*
X175495310Y-93495310D01*
X175539857Y-93428641D01*
X175555500Y-93350000D01*
X175555500Y-91650000D01*
X175539857Y-91571359D01*
X175495310Y-91504690D01*
X175428641Y-91460143D01*
X175350000Y-91444500D01*
X173650000Y-91444500D01*
X173571359Y-91460143D01*
X173504690Y-91504690D01*
X173460143Y-91571359D01*
X173444500Y-91650000D01*
X173444500Y-93350000D01*
X173460143Y-93428641D01*
X173504690Y-93495310D01*
X173571359Y-93539857D01*
X173650000Y-93555500D01*
X174103802Y-93555500D01*
X174161010Y-93576322D01*
X174191450Y-93629045D01*
X174180878Y-93689000D01*
X174134242Y-93728133D01*
X174122078Y-93731603D01*
X174112014Y-93733715D01*
X174104829Y-93735870D01*
X173897464Y-93817762D01*
X173890741Y-93821099D01*
X173700152Y-93936752D01*
X173694075Y-93941183D01*
X173525699Y-94087292D01*
X173520458Y-94092683D01*
X173379106Y-94265073D01*
X173374852Y-94271262D01*
X173264564Y-94465010D01*
X173261412Y-94471832D01*
X173185346Y-94681392D01*
X173183391Y-94688635D01*
X173168577Y-94770560D01*
X169254410Y-94770560D01*
X169698404Y-94326567D01*
X169753579Y-94300839D01*
X169761336Y-94300500D01*
X171317745Y-94300500D01*
X171373936Y-94320481D01*
X171408124Y-94348314D01*
X171466095Y-94395511D01*
X171592732Y-94446804D01*
X171642289Y-94451096D01*
X171722221Y-94458019D01*
X171722223Y-94458019D01*
X171728852Y-94458593D01*
X171735354Y-94457193D01*
X171735357Y-94457193D01*
X171855921Y-94431237D01*
X171855924Y-94431236D01*
X171862422Y-94429837D01*
X171868222Y-94426589D01*
X171868224Y-94426588D01*
X171975827Y-94366327D01*
X171975830Y-94366325D01*
X171981631Y-94363076D01*
X172075940Y-94264215D01*
X172137010Y-94141993D01*
X172156999Y-94021902D01*
X172158869Y-94010669D01*
X172158869Y-94010664D01*
X172159443Y-94007218D01*
X172159500Y-94000000D01*
X172149991Y-93936752D01*
X172140176Y-93871465D01*
X172140176Y-93871464D01*
X172139187Y-93864888D01*
X172080044Y-93741723D01*
X171987299Y-93641392D01*
X171869153Y-93572768D01*
X171736052Y-93541916D01*
X171622813Y-93549934D01*
X171606400Y-93551096D01*
X171599763Y-93551566D01*
X171593557Y-93553967D01*
X171478540Y-93598464D01*
X171478539Y-93598465D01*
X171472337Y-93600864D01*
X171467115Y-93604981D01*
X171467111Y-93604983D01*
X171371455Y-93680393D01*
X171316356Y-93699500D01*
X169652530Y-93699500D01*
X169648861Y-93699230D01*
X169644628Y-93697777D01*
X169636418Y-93698085D01*
X169636416Y-93698085D01*
X169600423Y-93699437D01*
X169597083Y-93699500D01*
X169573154Y-93699500D01*
X169569124Y-93700251D01*
X169565038Y-93700628D01*
X169565020Y-93700435D01*
X169560155Y-93700949D01*
X169549540Y-93701348D01*
X169532837Y-93701975D01*
X169525289Y-93705218D01*
X169525288Y-93705218D01*
X169521252Y-93706952D01*
X169502420Y-93712673D01*
X169498102Y-93713477D01*
X169498097Y-93713479D01*
X169490021Y-93714983D01*
X169483027Y-93719294D01*
X169483025Y-93719295D01*
X169466744Y-93729331D01*
X169455174Y-93735341D01*
X169443166Y-93740500D01*
X169430052Y-93746134D01*
X169423574Y-93751455D01*
X169419243Y-93755786D01*
X169403010Y-93768616D01*
X169401786Y-93769370D01*
X169401783Y-93769373D01*
X169394789Y-93773684D01*
X169389815Y-93780225D01*
X169389814Y-93780226D01*
X169377631Y-93796248D01*
X169369727Y-93805302D01*
X165027132Y-98147898D01*
X161294173Y-101880857D01*
X161238997Y-101906585D01*
X161180192Y-101890829D01*
X161145273Y-101840959D01*
X161143448Y-101803313D01*
X161159443Y-101707218D01*
X161159500Y-101700000D01*
X161139187Y-101564888D01*
X161080044Y-101441723D01*
X161024145Y-101381252D01*
X161000500Y-101320839D01*
X161000500Y-100861336D01*
X161021322Y-100804128D01*
X161026567Y-100798403D01*
X171342045Y-90482926D01*
X171397221Y-90457198D01*
X171412654Y-90457191D01*
X171422218Y-90458019D01*
X171422221Y-90458019D01*
X171428852Y-90458593D01*
X171435354Y-90457193D01*
X171435357Y-90457193D01*
X171555921Y-90431237D01*
X171555924Y-90431236D01*
X171562422Y-90429837D01*
X171568222Y-90426589D01*
X171568224Y-90426588D01*
X171675827Y-90366327D01*
X171675830Y-90366325D01*
X171681631Y-90363076D01*
X171775940Y-90264215D01*
X171837010Y-90141993D01*
X171838103Y-90135428D01*
X171858869Y-90010669D01*
X171858869Y-90010664D01*
X171859443Y-90007218D01*
X171859500Y-90000000D01*
X171852042Y-89950390D01*
X171840176Y-89871465D01*
X171840176Y-89871464D01*
X171839187Y-89864888D01*
X171780044Y-89741723D01*
X171687299Y-89641392D01*
X171569153Y-89572768D01*
X171436052Y-89541916D01*
X171322813Y-89549934D01*
X171306400Y-89551096D01*
X171299763Y-89551566D01*
X171293557Y-89553967D01*
X171178540Y-89598464D01*
X171178539Y-89598465D01*
X171172337Y-89600864D01*
X171167115Y-89604981D01*
X171167111Y-89604983D01*
X171070265Y-89681331D01*
X171065039Y-89685451D01*
X170987356Y-89797848D01*
X170946157Y-89928118D01*
X170946105Y-89934772D01*
X170945645Y-89993215D01*
X170924374Y-90050258D01*
X170919581Y-90055447D01*
X160524662Y-100450368D01*
X160521875Y-100452773D01*
X160517854Y-100454739D01*
X160512264Y-100460765D01*
X160487773Y-100487167D01*
X160485457Y-100489573D01*
X160468532Y-100506498D01*
X160466212Y-100509880D01*
X160463597Y-100513027D01*
X160463449Y-100512904D01*
X160460375Y-100516702D01*
X160441774Y-100536755D01*
X160437100Y-100548470D01*
X160427831Y-100565830D01*
X160420696Y-100576230D01*
X160414875Y-100600761D01*
X160414382Y-100602836D01*
X160410451Y-100615265D01*
X160400319Y-100640661D01*
X160399501Y-100649004D01*
X160399501Y-100655126D01*
X160397096Y-100675676D01*
X160394865Y-100685077D01*
X160395973Y-100693218D01*
X160395973Y-100693219D01*
X160398688Y-100713165D01*
X160399501Y-100725168D01*
X160399500Y-101315116D01*
X160378678Y-101372324D01*
X160374601Y-101376278D01*
X160374818Y-101376482D01*
X160370262Y-101381333D01*
X160365039Y-101385451D01*
X160287356Y-101497848D01*
X160285349Y-101504194D01*
X160274357Y-101538950D01*
X160237254Y-101587217D01*
X160177806Y-101600341D01*
X160123830Y-101572183D01*
X160100500Y-101512113D01*
X160100500Y-99161335D01*
X160121322Y-99104127D01*
X160126568Y-99098402D01*
X163842046Y-95382925D01*
X163897221Y-95357197D01*
X163912651Y-95357190D01*
X163928852Y-95358593D01*
X163935354Y-95357193D01*
X163935357Y-95357193D01*
X164055921Y-95331237D01*
X164055924Y-95331236D01*
X164062422Y-95329837D01*
X164068222Y-95326589D01*
X164068224Y-95326588D01*
X164175827Y-95266327D01*
X164175830Y-95266325D01*
X164181631Y-95263076D01*
X164275940Y-95164215D01*
X164337010Y-95041993D01*
X164338103Y-95035428D01*
X164358869Y-94910669D01*
X164358869Y-94910664D01*
X164359443Y-94907218D01*
X164359500Y-94900000D01*
X164352042Y-94850390D01*
X164340176Y-94771465D01*
X164340176Y-94771464D01*
X164339187Y-94764888D01*
X164280044Y-94641723D01*
X164187299Y-94541392D01*
X164069153Y-94472768D01*
X163936052Y-94441916D01*
X163822813Y-94449934D01*
X163806400Y-94451096D01*
X163799763Y-94451566D01*
X163793557Y-94453967D01*
X163678540Y-94498464D01*
X163678539Y-94498465D01*
X163672337Y-94500864D01*
X163667115Y-94504981D01*
X163667111Y-94504983D01*
X163570265Y-94581331D01*
X163565039Y-94585451D01*
X163487356Y-94697848D01*
X163485349Y-94704194D01*
X163461610Y-94779257D01*
X163446157Y-94828118D01*
X163446105Y-94834772D01*
X163445645Y-94893216D01*
X163424374Y-94950259D01*
X163419581Y-94955448D01*
X159624668Y-98750362D01*
X159621875Y-98752773D01*
X159617853Y-98754739D01*
X159612265Y-98760763D01*
X159587751Y-98787190D01*
X159585434Y-98789596D01*
X159568532Y-98806498D01*
X159566217Y-98809871D01*
X159563597Y-98813025D01*
X159563417Y-98812875D01*
X159560375Y-98816702D01*
X159541773Y-98836756D01*
X159538729Y-98844386D01*
X159537100Y-98848469D01*
X159527828Y-98865833D01*
X159520696Y-98876230D01*
X159518799Y-98884222D01*
X159518799Y-98884223D01*
X159514383Y-98902832D01*
X159510452Y-98915261D01*
X159500318Y-98940662D01*
X159499500Y-98949005D01*
X159499500Y-98955130D01*
X159497095Y-98975680D01*
X159494865Y-98985077D01*
X159495973Y-98993219D01*
X159495973Y-98993220D01*
X159498687Y-99013160D01*
X159499500Y-99025162D01*
X159499501Y-105767385D01*
X159499231Y-105771059D01*
X159497777Y-105775294D01*
X159498085Y-105783504D01*
X159498085Y-105783506D01*
X159499438Y-105819525D01*
X159499501Y-105822865D01*
X159499501Y-105846768D01*
X159500250Y-105850790D01*
X159500627Y-105854878D01*
X159500424Y-105854897D01*
X159500948Y-105859753D01*
X159501975Y-105887084D01*
X159505218Y-105894633D01*
X159505219Y-105894637D01*
X159506953Y-105898672D01*
X159512674Y-105917500D01*
X159514984Y-105929901D01*
X159529334Y-105953181D01*
X159535338Y-105964741D01*
X159543652Y-105984095D01*
X159543655Y-105984100D01*
X159546134Y-105989870D01*
X159551455Y-105996347D01*
X159555787Y-106000679D01*
X159568617Y-106016912D01*
X159569371Y-106018136D01*
X159569374Y-106018139D01*
X159573685Y-106025133D01*
X159580226Y-106030107D01*
X159580227Y-106030108D01*
X159596249Y-106042291D01*
X159605311Y-106050203D01*
X162402675Y-108847568D01*
X162428403Y-108902743D01*
X162412647Y-108961548D01*
X162362777Y-108996467D01*
X162339742Y-108999500D01*
X147161337Y-108999500D01*
X147104129Y-108978678D01*
X147098404Y-108973433D01*
X129389715Y-91264744D01*
X158345084Y-91264744D01*
X158384232Y-91395646D01*
X158460140Y-91509249D01*
X158566095Y-91595511D01*
X158692732Y-91646804D01*
X158750168Y-91651778D01*
X158822221Y-91658019D01*
X158822223Y-91658019D01*
X158828852Y-91658593D01*
X158835354Y-91657193D01*
X158835357Y-91657193D01*
X158955921Y-91631237D01*
X158955924Y-91631236D01*
X158962422Y-91629837D01*
X158968222Y-91626589D01*
X158968224Y-91626588D01*
X159075830Y-91566325D01*
X159075831Y-91566324D01*
X159081631Y-91563076D01*
X159115027Y-91528068D01*
X159169582Y-91501046D01*
X159179425Y-91500500D01*
X161638665Y-91500500D01*
X161695873Y-91521322D01*
X161701598Y-91526568D01*
X163419465Y-93244436D01*
X163445193Y-93299611D01*
X163445529Y-93308067D01*
X163445084Y-93364744D01*
X163484232Y-93495646D01*
X163560140Y-93609249D01*
X163666095Y-93695511D01*
X163792732Y-93746804D01*
X163846434Y-93751455D01*
X163922221Y-93758019D01*
X163922223Y-93758019D01*
X163928852Y-93758593D01*
X163935354Y-93757193D01*
X163935357Y-93757193D01*
X164055921Y-93731237D01*
X164055924Y-93731236D01*
X164062422Y-93729837D01*
X164068222Y-93726589D01*
X164068224Y-93726588D01*
X164175827Y-93666327D01*
X164175830Y-93666325D01*
X164181631Y-93663076D01*
X164275940Y-93564215D01*
X164337010Y-93441993D01*
X164338103Y-93435428D01*
X164358869Y-93310669D01*
X164358869Y-93310664D01*
X164359443Y-93307218D01*
X164359500Y-93300000D01*
X164339187Y-93164888D01*
X164280044Y-93041723D01*
X164187299Y-92941392D01*
X164069153Y-92872768D01*
X163936052Y-92841916D01*
X163929423Y-92842385D01*
X163929418Y-92842385D01*
X163911963Y-92843621D01*
X163853427Y-92826890D01*
X163842747Y-92817776D01*
X162049636Y-91024666D01*
X162047227Y-91021875D01*
X162045261Y-91017853D01*
X162012819Y-90987759D01*
X162010413Y-90985443D01*
X161993502Y-90968532D01*
X161990123Y-90966214D01*
X161986972Y-90963596D01*
X161987120Y-90963418D01*
X161983296Y-90960373D01*
X161969269Y-90947361D01*
X161963245Y-90941773D01*
X161951526Y-90937097D01*
X161934168Y-90927828D01*
X161923770Y-90920696D01*
X161897165Y-90914382D01*
X161884738Y-90910451D01*
X161865174Y-90902646D01*
X161865175Y-90902646D01*
X161859339Y-90900318D01*
X161850996Y-90899500D01*
X161844870Y-90899500D01*
X161824320Y-90897095D01*
X161824033Y-90897027D01*
X161814923Y-90894865D01*
X161806781Y-90895973D01*
X161806780Y-90895973D01*
X161786841Y-90898687D01*
X161774839Y-90899500D01*
X159179943Y-90899500D01*
X159122735Y-90878678D01*
X159114588Y-90870913D01*
X159106137Y-90861771D01*
X159087299Y-90841392D01*
X158969153Y-90772768D01*
X158836052Y-90741916D01*
X158722813Y-90749934D01*
X158706400Y-90751096D01*
X158699763Y-90751566D01*
X158693557Y-90753967D01*
X158578540Y-90798464D01*
X158578539Y-90798465D01*
X158572337Y-90800864D01*
X158567115Y-90804981D01*
X158567111Y-90804983D01*
X158470265Y-90881331D01*
X158465039Y-90885451D01*
X158387356Y-90997848D01*
X158385349Y-91004194D01*
X158378875Y-91024666D01*
X158346157Y-91128118D01*
X158345084Y-91264744D01*
X129389715Y-91264744D01*
X125085332Y-86960362D01*
X125059487Y-86903708D01*
X125059472Y-86903501D01*
X125059500Y-86900000D01*
X125039187Y-86764888D01*
X124980044Y-86641723D01*
X124887299Y-86541392D01*
X124769153Y-86472768D01*
X124636052Y-86441916D01*
X124522813Y-86449934D01*
X124506400Y-86451096D01*
X124499763Y-86451566D01*
X124493557Y-86453967D01*
X124378540Y-86498464D01*
X124378539Y-86498465D01*
X124372337Y-86500864D01*
X124367115Y-86504981D01*
X124367111Y-86504983D01*
X124270265Y-86581331D01*
X124265039Y-86585451D01*
X124187356Y-86697848D01*
X124146157Y-86828118D01*
X124145084Y-86964744D01*
X116881000Y-86964744D01*
X116881000Y-82093399D01*
X116883008Y-82075599D01*
X116884304Y-82072051D01*
X116885245Y-82062571D01*
X116887809Y-81858218D01*
X116887995Y-81843432D01*
X116888476Y-81835246D01*
X116921904Y-81517196D01*
X116923361Y-81507995D01*
X116989236Y-81198081D01*
X116991642Y-81189100D01*
X117089553Y-80887760D01*
X117092890Y-80879068D01*
X117221755Y-80589635D01*
X117225984Y-80581335D01*
X117355948Y-80356232D01*
X117384405Y-80306944D01*
X117389467Y-80299149D01*
X117575699Y-80042824D01*
X117581554Y-80035594D01*
X117793563Y-79800133D01*
X117800144Y-79793552D01*
X118035587Y-79581559D01*
X118042824Y-79575698D01*
X118044874Y-79574209D01*
X118214750Y-79450787D01*
X118299153Y-79389465D01*
X118306966Y-79384392D01*
X118489844Y-79278806D01*
X118581343Y-79225979D01*
X118589640Y-79221751D01*
X118622406Y-79207163D01*
X118705775Y-79170045D01*
X118879071Y-79092889D01*
X118887767Y-79089551D01*
X119189090Y-78991645D01*
X119198089Y-78989234D01*
X119507995Y-78923361D01*
X119517194Y-78921904D01*
X119603891Y-78912792D01*
X119835252Y-78888475D01*
X119843438Y-78887994D01*
X119994594Y-78886097D01*
X120034879Y-78885592D01*
X120052686Y-78882398D01*
X120068399Y-78881000D01*
X129170856Y-78881000D01*
X129228064Y-78901822D01*
G37*
%TD.AperFunction*%
%TD*%
M02*
